<?xml version="1.0" encoding="iso-8859-1"?>
<!-- Generator: Adobe Illustrator 19.0.0, SVG Export Plug-In . SVG Version: 6.00 Build 0)  -->
<svg version="1.1" id="Capa_1" xmlns="http://www.w3.org/2000/svg" xmlns:xlink="http://www.w3.org/1999/xlink" x="0px" y="0px"
	 viewBox="0 0 512 512" style="enable-background:new 0 0 512 512;" xml:space="preserve">
<path style="fill:#EC7462;" d="M177.816,229.862v-1.074c-2.945,1.355-6.247,2.113-9.956,2.113l-0.701-10.011h-20.214l0.084,0.421
	c-1.694,0.598-3.301,1.381-4.759,2.329l-22.44,14.64l-22.45-14.64c-1.457-0.947-3.064-1.731-4.757-2.328l0.084-0.422H58.58
	c-19.75,0-35.75,16.01-35.75,35.76v102.91h106.246c0.081-14.873,12.174-26.92,27.066-26.92h60.688v-35.129
	C193.508,283.985,177.816,258.764,177.816,229.862z"/>
<path d="M487.98,512c-2.64,0-5.21-1.07-7.069-2.93c-0.46-0.46-0.88-0.97-1.25-1.52c-0.36-0.54-0.67-1.12-0.92-1.73
	c-0.25-0.6-0.44-1.23-0.57-1.87c-0.13-0.64-0.19-1.3-0.19-1.95s0.061-1.31,0.19-1.95c0.13-0.64,0.32-1.27,0.57-1.87
	c0.25-0.61,0.56-1.19,0.92-1.73c0.37-0.55,0.79-1.06,1.25-1.52c2.319-2.32,5.77-3.39,9.02-2.73c0.64,0.12,1.271,0.32,1.87,0.57
	c0.6,0.25,1.19,0.56,1.73,0.92c0.55,0.36,1.059,0.78,1.52,1.24c0.46,0.46,0.88,0.97,1.24,1.52c0.359,0.54,0.67,1.12,0.92,1.73
	c0.25,0.6,0.439,1.23,0.57,1.87c0.13,0.64,0.199,1.3,0.199,1.95s-0.069,1.31-0.199,1.95c-0.131,0.64-0.32,1.27-0.57,1.87
	c-0.25,0.61-0.561,1.19-0.92,1.73c-0.36,0.55-0.78,1.06-1.24,1.52s-0.97,0.88-1.52,1.24c-0.54,0.37-1.131,0.67-1.73,0.92
	c-0.6,0.25-1.23,0.45-1.87,0.58C489.29,511.94,488.63,512,487.98,512z"/>
<path style="fill:#DC9E5E;" d="M348.898,154.163v-4.446c0-0.749-0.013-1.508-0.038-2.276c-1.243-37.999-35.072-66.689-72.912-62.99
	c0,0-52.414,6.502-85.321,8.342c-20.468,1.145-27.527,31.46-27.527,53.524v7.845v8.797l4.758,67.941
	c24.55,0,31.578-32.776,31.578-57.326v-9.792l12.162,3.204c29.131,7.675,59.726,7.894,88.964,0.639l13.849-3.437
	c5.466,18.36-0.811,66.712,29.727,66.712L348.898,154.163L348.898,154.163z"/>
<path style="fill:#F9E2A1;" d="M314.413,164.189l-13.849,3.437c-29.238,7.256-59.833,7.036-88.964-0.639l-12.162-3.204v9.792
	c0,20.842-5.072,47.6-21.622,55.212v1.074c0,33.1,20.58,61.376,49.634,72.782l-8.051,31.497L256,357.432l36.601-23.29l-8.051-31.497
	c29.054-11.407,49.634-39.682,49.634-72.783v-1.146C315.01,219.093,319.184,180.216,314.413,164.189z"/>
<path style="fill:#4B596E;" d="M355.858,332.64h-63.641l0.384,1.501L256,357.432l-36.601-23.29l0.384-1.501h-63.64
	c-14.942,0-27.07,12.127-27.07,27.069V502h253.855V359.71C382.928,344.768,370.813,332.64,355.858,332.64z"/>
<polygon style="fill:#BEE6F2;" points="292.601,334.141 256,357.432 219.399,334.141 219.783,332.64 191.489,332.64 216.623,502 
	295.377,502 320.511,332.64 292.218,332.64 "/>
<polygon style="fill:#3C95B1;" points="256,357.432 234.962,344.044 223.535,450.611 256,483.85 288.465,450.611 277.038,344.044 
	"/>
<path style="fill:#4B596E;" d="M474.267,67.076v-3.624c0-0.611-0.01-1.229-0.031-1.854c-1.013-30.969-28.584-54.351-59.423-51.336
	c0,0-42.717,5.299-69.536,6.799c-16.682,0.933-22.434,25.639-22.434,43.622v6.394v7.169l1.737,24.799
	c7.525,6.082,13.708,13.766,17.954,22.587c7.43-9.443,9.923-25.544,9.923-38.735v-7.981l9.912,2.611
	c23.742,6.255,48.676,6.434,72.505,0.521l11.287-2.801c4.454,14.964-0.661,54.37,24.228,54.37L474.267,67.076L474.267,67.076z"/>
<path style="fill:#F9E2A1;" d="M446.161,75.247l-11.287,2.801c-23.829,5.913-48.763,5.734-72.505-0.521l-9.912-2.611v7.981
	c0,13.191-2.493,29.292-9.923,38.735c-0.035-0.072-0.075-0.14-0.11-0.212c3.834,7.881,6.13,16.665,6.436,26.022
	c0.025,0.768,0.038,1.526,0.038,2.276v4.446l-0.834,13.45c6.999,9.076,16.383,16.218,27.222,20.474l-6.562,26.04l29.83,18.611
	l29.83-18.611l-6.561-26.04c23.679-9.296,40.452-32.341,40.452-59.317v-0.934C446.648,119.994,450.05,88.309,446.161,75.247z"/>
<path style="fill:#BEE6F2;" d="M479.939,212.534h-51.955l0.401,1.593l-29.83,18.611l-29.83-18.611l0.401-1.593h-23.848
	l-1.139,18.367c-3.881,0-7.164-0.784-9.956-2.185v1.146c0,28.927-15.719,54.168-39.074,67.686v35.092h60.748
	c11.741,0,21.728,7.477,25.48,17.92H502V234.595C502,222.418,492.127,212.534,479.939,212.534z"/>
<polygon style="fill:#EC7462;" points="398.555,232.739 381.388,222.027 372.096,308.679 398.555,335.769 425.014,308.679 
	415.722,222.027 "/>
<path style="fill:#C0E8F4;" d="M157.51,266.13c13.014-8.276,18.666-25.201,15.357-35.73c-1.582,0.324-3.248,0.5-5.007,0.5
	l-0.555-7.917c-0.48-0.292-0.978-0.573-1.495-0.824c-1.04-0.51-2.13-0.94-3.26-1.27h-14.21c-2.18,0.63-4.24,1.56-6.07,2.75
	l-22.44,14.64l-22.45-14.64c-1.83-1.19-3.89-2.12-6.07-2.75H77.1c-1.12,0.33-2.21,0.76-3.25,1.27c-0.65,0.31-1.27,0.66-1.85,1.03
	c-11.2,7.12-6.66,32.25,10.14,42.94c11.66,7.41,26.16,2.63,37.69-3.02C131.35,268.76,145.85,273.54,157.51,266.13z"/>
<path style="fill:#FBE4A3;" d="M97.649,195.543l-5.026,25.769c1.693,0.598,3.3,1.381,4.757,2.328l22.45,14.64l22.44-14.64
	c1.458-0.948,3.065-1.731,4.759-2.329l-5.026-25.768c8.556-3.359,16.163-8.605,22.314-15.221l-1.216-17.362v-8.797v-7.845
	c0-11.583,1.95-25.435,6.759-36.151h-35.527c-45.372,0-75.239-25.605-75.239-25.605v54.445
	C59.095,164.719,75.081,186.683,97.649,195.543z"/>
<g>
	<path style="fill:#4B596E;" d="M142.003,195.543l4.942,25.347h20.214l-2.841-40.568
		C158.166,186.938,150.559,192.184,142.003,195.543z"/>
	<path style="fill:#4B596E;" d="M119.826,10C51.191,10,10.001,67.416,10.001,149.778c0,0.222,0,0.447,0,0.676
		c-0.034,30.921,16.482,57.75,41.521,71.136c2.282-0.457,4.642-0.7,7.059-0.7h34.127l4.942-25.347
		c-22.568-8.86-38.555-30.824-38.555-56.535V84.562c0,0,29.867,25.605,75.239,25.605h35.527
		c4.352-9.698,11.044-16.829,20.767-17.373c9.22-0.516,19.971-1.397,30.671-2.399C206.003,41.118,170.352,10,119.826,10z"/>
</g>
<path d="M479.939,202.534h-44.162l-2.234-8.865c20.632-11.06,34.604-31.046,37.95-54.118c4.775-0.526,8.574-4.416,8.877-9.316
	l3.878-62.541c0.013-0.206,0.02-0.412,0.02-0.619v-3.624c0-0.719-0.013-1.446-0.036-2.181c-0.573-17.503-8.203-33.563-21.485-45.22
	C449.372,4.316,431.548-1.423,413.84,0.31c-0.086,0.008-0.172,0.018-0.257,0.029c-0.425,0.052-42.695,5.275-68.864,6.738
	c-6.596,0.369-18.765,3.663-26.158,21.588c-3.633,8.807-5.717,20.477-5.717,32.018v13.563c0,0.233,0.008,0.466,0.024,0.698
	l0.395,5.642c-11.939-5.2-25.14-7.371-38.288-6.087c-0.087,0.008-0.173,0.018-0.259,0.029c-0.338,0.042-22.315,2.757-46.502,5.151
	C209.706,28.925,170.599,0,119.826,0C83.374,0,52.74,14.843,31.236,42.923C10.802,69.606,0.001,106.556,0.001,149.778L0,150.443
	c-0.03,27.351,11.664,52.591,31.387,69.434c-11.25,8.345-18.557,21.72-18.557,36.773v102.91c0,5.523,4.477,10,10,10h96.242V492
	h-95.05c-5.523,0-10,4.477-10,10s4.477,10,10,10h105.05h87.551h78.754h87.551h67.716c5.522,0,10-4.477,10-10s-4.478-10-10-10
	h-57.716V360.561H502c5.522,0,10-4.477,10-10V234.595C512,216.917,497.617,202.534,479.939,202.534z M407.481,238.956l7.088,66.105
	l-16.014,16.396l-16.013-16.395l7.088-66.105l3.631,2.265c1.62,1.011,3.457,1.516,5.294,1.516c1.378,0,2.755-0.284,4.041-0.853
	c0.428-0.189,0.847-0.41,1.252-0.663L407.481,238.956z M387.597,340.561c-0.137-0.226-0.289-0.439-0.43-0.661
	c-0.219-0.344-0.437-0.688-0.666-1.025c-0.205-0.301-0.419-0.595-0.633-0.889c-0.201-0.276-0.404-0.551-0.613-0.821
	c-0.216-0.281-0.433-0.562-0.658-0.836c-0.266-0.327-0.542-0.645-0.819-0.963c-0.243-0.278-0.487-0.555-0.738-0.826
	c-0.381-0.411-0.769-0.814-1.168-1.207c-0.172-0.169-0.348-0.333-0.523-0.499c-0.376-0.357-0.759-0.705-1.149-1.046
	c-0.142-0.124-0.283-0.249-0.427-0.37c-5.245-4.439-11.733-7.447-18.863-8.423c-0.153-0.021-0.307-0.04-0.46-0.059
	c-0.588-0.073-1.181-0.132-1.777-0.177c-0.189-0.014-0.377-0.032-0.566-0.043c-0.744-0.045-1.492-0.074-2.247-0.074h-35.348h-15.4
	V303.1c9.094-6.097,17.012-13.862,23.364-23.005c8.165-11.752,13.26-25.134,15.014-39.199c0.216,0.004,0.434,0.006,0.651,0.006
	c0.33,0,0.657-0.016,0.979-0.047c0.427-0.042,0.844-0.12,1.254-0.214c0.97-0.222,1.886-0.585,2.727-1.067
	c2.829-1.622,4.805-4.58,5.02-8.053l0.558-8.986h8.633c0.036,0.023,0.072,0.046,0.109,0.069c0.004,0.003,0.008,0.006,0.012,0.008
	l7.344,4.583l-8.623,80.42c-0.317,2.966,0.705,5.919,2.789,8.053l24.314,24.895h-1.66V340.561z M296.162,428.593l-8.518-79.444
	l10.228-6.508h11.046L296.162,428.593z M278.02,446.994L256,469.539l-22.02-22.545l9.207-85.862l7.444,4.737
	c0.682,0.434,1.41,0.756,2.155,1.009c2.086,0.709,4.341,0.709,6.426,0c0.745-0.253,1.473-0.575,2.155-1.009l7.444-4.737
	L278.02,446.994z M203.083,342.641h11.046l10.228,6.508l-8.519,79.444L203.083,342.641z M163.554,239.928
	c-0.951,6.047-4.653,13.466-11.407,17.762c-6.057,3.848-15.187,2.684-27.913-3.558c-1.389-0.682-2.896-1.022-4.403-1.022
	c-1.506,0-3.013,0.34-4.4,1.02c-12.74,6.243-21.876,7.406-27.922,3.563c-7.651-4.869-11.653-14.15-11.651-20.802
	c0-2.956,0.782-4.8,1.518-5.267c0.269-0.171,0.534-0.32,0.877-0.484c0.18-0.088,0.361-0.171,0.544-0.249h10.857
	c0.232,0.09,0.459,0.184,0.681,0.284c0.142,0.064,0.289,0.122,0.426,0.19c0.406,0.201,0.796,0.417,1.158,0.652l22.45,14.64
	c0.415,0.271,0.845,0.507,1.286,0.71c3.09,1.421,6.734,1.184,9.639-0.712l22.427-14.631c0.012-0.008,0.026-0.014,0.038-0.022
	c0.355-0.229,0.733-0.439,1.126-0.635c0.142-0.071,0.294-0.13,0.44-0.197c0.219-0.099,0.444-0.192,0.673-0.281h7.837l0.05,0.71
	c0.029,0.414,0.091,0.817,0.169,1.215c0.021,0.11,0.046,0.217,0.071,0.326c0.074,0.32,0.161,0.635,0.265,0.942
	c0.025,0.076,0.046,0.154,0.073,0.229c0.134,0.369,0.289,0.726,0.463,1.073c0.042,0.083,0.089,0.163,0.134,0.245
	c0.147,0.273,0.306,0.539,0.477,0.796c0.057,0.086,0.113,0.173,0.172,0.257c0.223,0.314,0.46,0.618,0.717,0.903
	c0.031,0.034,0.064,0.064,0.095,0.098c0.234,0.252,0.481,0.491,0.739,0.718c0.081,0.071,0.162,0.14,0.245,0.209
	c0.258,0.213,0.525,0.413,0.803,0.6c0.047,0.031,0.091,0.067,0.139,0.098c0.324,0.209,0.662,0.395,1.01,0.566
	C163.49,239.89,163.52,239.912,163.554,239.928z M69.095,139.007V103.14c14.219,7.854,36.893,17.027,65.238,17.027h21.735
	c-0.028,0.118-0.051,0.24-0.079,0.357c-0.159,0.686-0.311,1.379-0.458,2.076c-0.057,0.268-0.117,0.532-0.172,0.802
	c-0.175,0.865-0.339,1.74-0.495,2.622c-0.081,0.46-0.155,0.925-0.231,1.39c-0.078,0.479-0.155,0.959-0.228,1.442
	c-0.075,0.502-0.148,1.006-0.217,1.512c-0.064,0.472-0.124,0.946-0.183,1.421c-0.061,0.497-0.125,0.992-0.18,1.491
	c-0.099,0.889-0.188,1.781-0.267,2.678c-0.035,0.402-0.062,0.807-0.093,1.21c-0.048,0.617-0.094,1.234-0.132,1.854
	c-0.025,0.408-0.047,0.817-0.068,1.226c-0.034,0.663-0.062,1.326-0.085,1.99c-0.012,0.347-0.026,0.693-0.035,1.04
	c-0.026,1.013-0.044,2.026-0.044,3.038v16.642c0,0.233,0.008,0.466,0.024,0.699l0.895,12.771c-0.237,0.216-0.472,0.436-0.713,0.647
	c-0.229,0.201-0.458,0.404-0.69,0.601c-0.503,0.426-1.015,0.839-1.534,1.245c-0.172,0.135-0.34,0.275-0.514,0.408
	c-0.694,0.529-1.401,1.042-2.121,1.535c-0.164,0.113-0.334,0.217-0.499,0.327c-0.563,0.376-1.13,0.743-1.707,1.096
	c-0.257,0.158-0.518,0.309-0.778,0.462c-0.503,0.296-1.011,0.585-1.524,0.863c-0.276,0.15-0.552,0.298-0.83,0.443
	c-0.536,0.278-1.077,0.544-1.621,0.802c-0.248,0.118-0.494,0.24-0.744,0.354c-0.792,0.36-1.59,0.704-2.398,1.022
	c-4.493,1.764-7.085,6.485-6.161,11.222l3.602,18.471l-15.96,10.413l-15.966-10.412l3.247-16.652l0.355-1.82
	c0.116-0.592,0.176-1.185,0.185-1.771c0.053-3.516-1.759-6.815-4.753-8.658c-0.499-0.307-1.031-0.574-1.593-0.794
	C81.737,178.553,69.095,160.015,69.095,139.007z M302.972,177.331l3.466-0.86c0.269,2.411,0.509,5.011,0.754,7.669
	c0.085,0.918,0.171,1.849,0.259,2.785c0.026,0.279,0.053,0.558,0.079,0.839c0.034,0.358,0.069,0.716,0.104,1.076
	c0.03,0.304,0.06,0.608,0.09,0.913c0.035,0.351,0.07,0.701,0.106,1.054c0.06,0.588,0.122,1.179,0.187,1.771
	c0.033,0.3,0.067,0.601,0.101,0.901c0.04,0.362,0.082,0.723,0.124,1.086c0.037,0.314,0.075,0.627,0.113,0.942
	c0.045,0.368,0.091,0.736,0.137,1.104c0.038,0.299,0.076,0.597,0.116,0.896c0.064,0.481,0.13,0.962,0.198,1.443
	c0.029,0.202,0.056,0.403,0.085,0.605c0.092,0.633,0.188,1.265,0.289,1.897c0.032,0.204,0.066,0.406,0.1,0.61
	c0.081,0.495,0.164,0.988,0.251,1.481c0.034,0.194,0.068,0.388,0.104,0.581c0.107,0.589,0.218,1.177,0.334,1.762
	c0.015,0.077,0.03,0.155,0.045,0.232c2.192,10.947,6.086,21.234,14.041,27.845c-0.008,0.128-0.011,0.256-0.019,0.384
	c-0.004,0.058-0.01,0.116-0.013,0.174c-1.554,22.451-14.251,42.985-33.921,54.371c-0.093,0.054-0.174,0.121-0.265,0.178
	c-2.841,1.614-5.825,3.042-8.94,4.265c-4.696,1.844-7.284,6.897-6.034,11.785l6.257,24.474L256,345.579l-25.118-15.983l6.257-24.475
	c1.25-4.888-1.338-9.941-6.034-11.785c-3.126-1.228-6.121-2.662-8.972-4.283c-0.098-0.061-0.185-0.134-0.285-0.192
	c-19.691-11.421-32.385-32.021-33.883-54.517c17.918-13.22,21.086-42.214,21.437-57.595c0.163,0.043,0.328,0.078,0.491,0.12
	C240.31,184.733,272.475,184.9,302.972,177.331z M361.334,202.534h-5.416l0.811-13.084c2.203,1.521,4.484,2.929,6.843,4.203
	L361.334,202.534z M155.185,210.89l-1.871-9.595c0.094-0.051,0.185-0.107,0.279-0.158c0.698-0.381,1.391-0.768,2.076-1.172
	l0.765,10.926L155.185,210.89L155.185,210.89z M418.169,178.779c-4.684,1.839-7.272,6.872-6.043,11.751l4.78,18.971l-18.352,11.45
	l-18.351-11.45l4.78-18.971c1.229-4.88-1.358-9.913-6.043-11.752c-7.925-3.111-15.001-8.082-20.652-14.479l0.542-8.751l0.048-0.766
	c0.013-0.206,0.02-0.413,0.02-0.619v-4.446c0-0.858-0.015-1.727-0.043-2.602c-0.039-1.187-0.112-2.367-0.206-3.543
	c-0.034-0.432-0.082-0.86-0.124-1.29c-0.07-0.722-0.146-1.442-0.236-2.159c-0.07-0.557-0.149-1.111-0.231-1.664
	c-0.08-0.536-0.167-1.071-0.259-1.605c-0.117-0.684-0.237-1.367-0.372-2.045c-0.048-0.237-0.102-0.471-0.152-0.707
	c-0.825-3.939-1.963-7.78-3.403-11.5c0.222-0.393,0.427-0.796,0.639-1.195c0.128-0.243,0.264-0.481,0.388-0.726
	c0.39-0.769,0.764-1.547,1.116-2.337c0.041-0.093,0.077-0.188,0.118-0.281c0.309-0.704,0.606-1.415,0.886-2.132
	c0.107-0.273,0.205-0.548,0.307-0.822c0.204-0.546,0.405-1.092,0.594-1.643c0.106-0.31,0.207-0.621,0.309-0.932
	c0.171-0.524,0.337-1.049,0.495-1.576c0.095-0.317,0.188-0.634,0.279-0.952c0.153-0.537,0.298-1.073,0.438-1.611
	c0.078-0.299,0.158-0.598,0.232-0.897c0.148-0.597,0.285-1.193,0.419-1.789c0.053-0.235,0.11-0.47,0.16-0.705
	c0.358-1.669,0.661-3.326,0.917-4.957c0.039-0.25,0.073-0.496,0.11-0.745c0.083-0.562,0.164-1.121,0.237-1.675
	c0.038-0.292,0.073-0.58,0.108-0.869c0.063-0.509,0.122-1.013,0.176-1.513c0.031-0.292,0.062-0.581,0.091-0.869
	c0.049-0.496,0.094-0.984,0.136-1.468c0.023-0.272,0.048-0.544,0.069-0.813c0.041-0.515,0.076-1.019,0.108-1.52
	c0.014-0.219,0.031-0.442,0.044-0.658c0.042-0.707,0.078-1.401,0.106-2.073c24.543,6.025,50.393,6.002,74.93-0.088l0.761-0.189
	c0.133,1.329,0.26,2.71,0.389,4.111c0.239,2.592,0.489,5.283,0.8,8.006c0.018,0.159,0.036,0.317,0.054,0.477
	c0.096,0.825,0.197,1.652,0.307,2.482c0.026,0.194,0.054,0.388,0.08,0.582c0.084,0.614,0.172,1.227,0.265,1.841
	c0.046,0.307,0.092,0.613,0.141,0.919c0.111,0.696,0.228,1.391,0.354,2.084c0.075,0.418,0.157,0.834,0.238,1.25
	c0.063,0.322,0.128,0.644,0.194,0.965c0.342,1.664,0.737,3.307,1.19,4.921c0,0.001,0,0.001,0.001,0.002
	c1.53,5.458,3.769,10.53,7.169,14.666c0.134,0.165,0.27,0.326,0.405,0.486c0.301,0.35,0.604,0.697,0.923,1.032
	c0.501,0.534,1.012,1.038,1.531,1.509c0.012,0.01,0.022,0.023,0.033,0.033C450.563,153.437,437.585,171.156,418.169,178.779z
	 M332.844,60.683c0-15.828,4.967-33.188,12.992-33.637c26.356-1.474,66.932-6.454,70.072-6.842
	c12.186-1.158,24.443,2.805,33.645,10.88c9.082,7.971,14.298,18.924,14.689,30.842c0.017,0.515,0.025,1.024,0.025,1.527v3.314
	l-2.717,43.815c-0.033-0.111-0.068-0.219-0.1-0.331c-0.127-0.443-0.252-0.895-0.372-1.37c-0.029-0.114-0.058-0.229-0.086-0.345
	c-1.143-4.691-1.924-10.897-2.642-18.684c0-0.004-0.001-0.008-0.001-0.012c-0.598-6.483-1.162-12.605-2.604-17.446
	c-0.002-0.007-0.005-0.013-0.007-0.02c-0.087-0.29-0.188-0.573-0.299-0.849c-0.038-0.094-0.081-0.185-0.122-0.277
	c-0.081-0.187-0.165-0.371-0.257-0.551c-0.052-0.103-0.108-0.203-0.164-0.303c-0.091-0.164-0.185-0.324-0.284-0.481
	c-0.062-0.099-0.125-0.197-0.191-0.293c-0.105-0.155-0.216-0.305-0.33-0.453c-0.067-0.087-0.132-0.175-0.201-0.26
	c-0.136-0.166-0.279-0.324-0.425-0.48c-0.054-0.058-0.104-0.119-0.159-0.175c-0.201-0.205-0.41-0.4-0.626-0.586
	c-0.068-0.059-0.141-0.112-0.211-0.169c-0.155-0.126-0.311-0.25-0.472-0.366c-0.093-0.067-0.189-0.129-0.284-0.193
	c-0.146-0.098-0.294-0.193-0.446-0.283c-0.103-0.061-0.206-0.12-0.311-0.177c-0.153-0.084-0.309-0.162-0.466-0.238
	c-0.105-0.051-0.21-0.102-0.317-0.149c-0.174-0.076-0.35-0.145-0.528-0.211c-0.094-0.035-0.185-0.073-0.28-0.106
	c-0.271-0.092-0.546-0.174-0.825-0.243c-0.045-0.011-0.091-0.017-0.136-0.028c-0.24-0.055-0.481-0.103-0.725-0.141
	c-0.101-0.016-0.203-0.025-0.304-0.037c-0.192-0.024-0.385-0.044-0.58-0.056c-0.113-0.007-0.225-0.011-0.339-0.014
	c-0.097-0.003-0.193-0.012-0.29-0.012c-0.062,0-0.126,0.01-0.189,0.011c-0.255,0.005-0.511,0.022-0.768,0.047
	c-0.116,0.011-0.232,0.018-0.348,0.034c-0.37,0.049-0.74,0.113-1.11,0.205l-11.286,2.801c-22.136,5.493-45.495,5.325-67.549-0.485
	l-9.912-2.611c-2.998-0.79-6.194-0.144-8.652,1.749c-2.456,1.894-3.896,4.819-3.896,7.921v7.981c0,0.807-0.01,1.609-0.03,2.405
	c-0.007,0.298-0.023,0.592-0.033,0.888c-0.017,0.495-0.031,0.991-0.055,1.481c-0.017,0.333-0.042,0.66-0.061,0.99
	c-0.027,0.448-0.051,0.898-0.084,1.341c-0.024,0.323-0.056,0.639-0.084,0.96c-0.038,0.442-0.073,0.887-0.117,1.323
	c-0.032,0.318-0.072,0.628-0.107,0.943c-0.048,0.43-0.094,0.864-0.148,1.288c-0.039,0.305-0.086,0.602-0.128,0.904
	c-0.059,0.425-0.116,0.853-0.181,1.27c-0.044,0.285-0.096,0.562-0.143,0.844c-0.071,0.424-0.14,0.851-0.217,1.266
	c-0.049,0.262-0.104,0.516-0.155,0.775c-0.077,0.391-0.153,0.784-0.236,1.167c-1.979-2.28-4.11-4.459-6.385-6.528
	c-0.01-0.009-0.019-0.019-0.029-0.028l-1.421-20.288V60.683H332.844z M277.044,94.393c14.762-1.414,29.598,3.064,41.124,12.316
	c0.044,0.036,0.082,0.078,0.126,0.114c6.383,5.159,11.608,11.711,15.131,18.955c0.003,0.006,0.005,0.012,0.008,0.017
	c3.354,6.895,5.182,14.288,5.434,21.978c0.021,0.656,0.032,1.305,0.032,1.945v4.136l-3.886,62.657
	c-0.792-1.023-1.5-2.234-2.143-3.621c-0.075-0.162-0.147-0.327-0.219-0.493c-0.126-0.287-0.25-0.582-0.371-0.884
	c-0.063-0.158-0.128-0.314-0.189-0.474c-2.41-6.316-3.773-15.72-4.947-28.352c-0.012-0.127-0.024-0.257-0.035-0.384
	c-0.723-7.839-1.406-15.243-3.11-20.967c-0.164-0.552-0.38-1.073-0.627-1.573c-2.042-4.143-6.737-6.428-11.366-5.279l-13.85,3.437
	c-27.531,6.831-56.58,6.623-84.008-0.603l-12.161-3.204c-0.75-0.197-1.512-0.305-2.271-0.326c-2.279-0.063-4.538,0.655-6.382,2.075
	c-2.456,1.894-3.895,4.819-3.895,7.921v9.792c0,0.215-0.003,0.438-0.004,0.657c-0.001,0.253-0.003,0.507-0.006,0.761
	c-0.188,13.927-3.161,34.338-12.487,42.424l-3.839-54.806V146.32c0-0.704,0.009-1.409,0.024-2.113
	c0.004-0.201,0.012-0.402,0.018-0.604c0.014-0.514,0.03-1.027,0.053-1.54c0.009-0.208,0.021-0.415,0.031-0.623
	c0.026-0.517,0.054-1.034,0.088-1.549c0.012-0.183,0.025-0.365,0.038-0.548c0.04-0.556,0.083-1.111,0.132-1.664
	c0.012-0.136,0.024-0.273,0.037-0.409c0.057-0.622,0.12-1.243,0.189-1.859c0.007-0.067,0.014-0.135,0.022-0.202
	c0.402-3.534,0.988-6.963,1.739-10.179c0.055-0.235,0.113-0.466,0.17-0.698c0.084-0.346,0.169-0.691,0.257-1.032
	c0.105-0.403,0.213-0.802,0.323-1.198c0.04-0.143,0.079-0.287,0.12-0.43c2.878-10.065,7.579-17.614,13.72-18.753
	c0.036-0.006,0.072-0.016,0.108-0.022c0.335-0.058,0.673-0.098,1.016-0.118C223.544,100.968,273.449,94.837,277.044,94.393z
	 M53.426,211.181C32.699,198.772,19.972,175.807,20,150.455l0.001-0.676C20.001,70.941,59.185,20,119.826,20
	c40.738,0,71.504,21.742,87.715,61.57c-1.984,0.164-3.945,0.319-5.873,0.465c-0.204,0.015-0.409,0.031-0.611,0.046
	c-0.386,0.029-0.771,0.057-1.154,0.085c-0.318,0.023-0.632,0.046-0.946,0.069c-0.31,0.022-0.621,0.045-0.928,0.067
	c-0.602,0.042-1.197,0.084-1.783,0.123c-0.196,0.013-0.39,0.026-0.585,0.039c-0.455,0.03-0.907,0.06-1.352,0.089
	c-0.205,0.013-0.409,0.026-0.612,0.039c-0.452,0.028-0.899,0.056-1.341,0.083c-0.167,0.01-0.334,0.02-0.5,0.03
	c-0.604,0.036-1.201,0.071-1.785,0.104c-7.801,0.437-18.268,3.942-26.275,17.357h-29.461c-40.857,0-68.478-22.985-68.729-23.197
	c-2.965-2.542-7.137-3.125-10.686-1.494c-3.549,1.632-5.822,5.18-5.822,9.085v54.445c0,2.48,0.126,4.934,0.374,7.357
	c2.147,21,13.418,39.612,30.663,51.221c0.988,0.665,2.002,1.299,3.028,1.917c1.041,0.627,2.095,1.238,3.175,1.814l-1.868,9.573H77.1
	H58.58c-0.835,0-1.665,0.026-2.489,0.07c-0.206,0.011-0.411,0.033-0.616,0.047c-0.625,0.042-1.249,0.091-1.868,0.158
	C53.547,211.172,53.486,211.174,53.426,211.181z M32.83,256.65c0-12.712,9.255-23.296,21.376-25.38
	c0.168-0.029,0.334-0.062,0.503-0.088c0.191-0.029,0.384-0.049,0.576-0.074c0.238-0.031,0.475-0.065,0.714-0.089
	c0.127-0.013,0.256-0.018,0.383-0.029c-0.34,1.881-0.524,3.849-0.525,5.896c-0.004,14.576,8.401,29.718,20.92,37.684
	c15.553,9.884,33.498,3.844,43.052-0.404c5.741,2.555,14.512,5.757,23.977,5.757c6.279,0,12.864-1.41,19.068-5.353
	c0.001,0,0.002-0.001,0.003-0.002c4.51-2.868,8.443-6.645,11.649-10.947c2.389,5.753,5.389,11.275,9,16.473
	c6.338,9.123,14.236,16.875,23.305,22.966v19.581H191.49h-35.347c-0.588,0-1.172,0.017-1.754,0.044
	c-0.199,0.009-0.396,0.025-0.594,0.038c-0.379,0.024-0.757,0.051-1.133,0.086c-0.239,0.022-0.477,0.049-0.715,0.076
	c-0.329,0.037-0.657,0.079-0.983,0.125c-0.257,0.036-0.514,0.073-0.77,0.114c-0.295,0.048-0.587,0.103-0.88,0.158
	c-0.275,0.052-0.552,0.1-0.825,0.158c-0.205,0.043-0.407,0.095-0.611,0.141c-0.71,0.162-1.412,0.344-2.105,0.546
	c-0.102,0.03-0.205,0.057-0.307,0.087c-0.395,0.119-0.786,0.249-1.176,0.38c-0.109,0.037-0.219,0.073-0.328,0.111
	c-0.406,0.142-0.808,0.291-1.208,0.446c-0.065,0.025-0.129,0.051-0.194,0.077c-10.167,4.019-18.143,12.404-21.604,22.837
	c-0.009,0.026-0.018,0.051-0.026,0.077c-0.139,0.422-0.27,0.848-0.394,1.277c-0.013,0.047-0.029,0.093-0.043,0.14H32.83V256.65z
	 M139.072,359.71c0-0.088,0.012-0.172,0.013-0.26c0.008-0.527,0.033-1.051,0.088-1.566c0.001-0.014,0.005-0.028,0.006-0.043
	c0.873-7.96,7.26-14.301,15.229-15.113c0.57-0.058,1.149-0.088,1.734-0.088h26.721L205.03,492h-65.957L139.072,359.71
	L139.072,359.71z M220.817,462.14l28.029,28.697c0.423,0.433,0.886,0.817,1.373,1.163h-24.97L220.817,462.14z M261.782,492
	c0.487-0.345,0.95-0.729,1.373-1.163l28.029-28.697L286.752,492H261.782z M306.971,492l22.166-149.359h26.722
	c0.527,0,1.046,0.032,1.56,0.079c0.18,0.017,0.359,0.041,0.538,0.064c0.331,0.041,0.658,0.091,0.982,0.15
	c0.209,0.039,0.418,0.077,0.624,0.124c0.299,0.067,0.593,0.146,0.886,0.228c0.2,0.056,0.403,0.105,0.6,0.168
	c0.434,0.139,0.859,0.297,1.277,0.469c0.222,0.091,0.437,0.196,0.655,0.296c0.236,0.109,0.47,0.219,0.7,0.338
	c0.212,0.109,0.42,0.225,0.627,0.343c0.242,0.139,0.48,0.284,0.715,0.435c0.175,0.112,0.352,0.221,0.524,0.34
	c0.39,0.27,0.772,0.551,1.138,0.851c0.028,0.023,0.055,0.048,0.082,0.071c0.369,0.307,0.723,0.631,1.064,0.967
	c0.088,0.086,0.171,0.177,0.257,0.265c0.278,0.286,0.548,0.581,0.806,0.887c0.078,0.092,0.155,0.184,0.23,0.277
	c0.279,0.344,0.545,0.699,0.797,1.064c0.037,0.054,0.078,0.106,0.114,0.161c0.578,0.86,1.076,1.777,1.492,2.737
	c0.052,0.12,0.098,0.242,0.147,0.364c0.802,1.976,1.253,4.131,1.253,6.392V492H306.971z M492,340.561h-84.148l24.316-24.895
	c2.084-2.134,3.106-5.087,2.789-8.053l-8.623-80.42l7.344-4.582c0.003-0.002,0.007-0.005,0.01-0.007
	c0.038-0.023,0.075-0.047,0.112-0.071h46.139c6.65,0,12.061,5.411,12.061,12.062L492,340.561L492,340.561z"/>
<g>
</g>
<g>
</g>
<g>
</g>
<g>
</g>
<g>
</g>
<g>
</g>
<g>
</g>
<g>
</g>
<g>
</g>
<g>
</g>
<g>
</g>
<g>
</g>
<g>
</g>
<g>
</g>
<g>
</g>
</svg>
