<?xml version="1.0" encoding="iso-8859-1"?>
<!-- Generator: Adobe Illustrator 19.0.0, SVG Export Plug-In . SVG Version: 6.00 Build 0)  -->
<svg version="1.1" id="Capa_1" xmlns="http://www.w3.org/2000/svg" xmlns:xlink="http://www.w3.org/1999/xlink" x="0px" y="0px"
	 viewBox="0 0 512 512" style="enable-background:new 0 0 512 512;" xml:space="preserve">
<rect x="113.491" y="65.19" style="fill:#A8E0F9;" width="285.02" height="350.9"/>
<path style="fill:#3E9BD5;" d="M398.512,49.576c0-21.857-17.719-39.576-39.576-39.576H153.065
	c-21.857,0-39.576,17.719-39.576,39.576v15.618h285.023V49.576z"/>
<path style="fill:#1578BE;" d="M113.49,416.09v46.334c0,21.857,17.719,39.576,39.576,39.576h205.871
	c21.857,0,39.576-17.719,39.576-39.576V416.09H113.49"/>
<path d="M345.481,106.68c-0.65,0-1.31-0.06-1.96-0.19c-0.63-0.13-1.26-0.32-1.87-0.57c-0.6-0.25-1.18-0.56-1.72-0.92
	c-0.55-0.37-1.06-0.79-1.52-1.25s-0.88-0.97-1.25-1.52c-0.36-0.54-0.67-1.12-0.92-1.72c-0.25-0.61-0.44-1.24-0.57-1.88
	s-0.19-1.3-0.19-1.95c0-0.65,0.06-1.31,0.19-1.95s0.32-1.27,0.57-1.87c0.25-0.61,0.56-1.19,0.92-1.73c0.37-0.55,0.79-1.06,1.25-1.52
	s0.97-0.88,1.52-1.24c0.54-0.36,1.12-0.67,1.72-0.92c0.61-0.25,1.24-0.44,1.87-0.57c1.29-0.26,2.62-0.26,3.91,0
	c0.64,0.13,1.27,0.32,1.87,0.57c0.61,0.25,1.19,0.56,1.73,0.92c0.55,0.36,1.06,0.78,1.52,1.24s0.88,0.97,1.24,1.52
	c0.36,0.54,0.67,1.12,0.92,1.73c0.25,0.6,0.44,1.23,0.57,1.87s0.2,1.3,0.2,1.95c0,0.65-0.07,1.31-0.2,1.95s-0.32,1.27-0.57,1.88
	c-0.25,0.6-0.56,1.18-0.92,1.72c-0.36,0.55-0.78,1.06-1.24,1.52s-0.97,0.88-1.52,1.25c-0.54,0.36-1.12,0.67-1.73,0.92
	c-0.6,0.25-1.23,0.44-1.87,0.57C346.791,106.62,346.131,106.68,345.481,106.68z"/>
<path d="M166.521,140.2c-2.63,0-5.21-1.07-7.07-2.93c-0.46-0.46-0.88-0.97-1.24-1.52c-0.36-0.54-0.67-1.12-0.92-1.72
	c-0.25-0.61-0.44-1.24-0.57-1.87c-0.13-0.65-0.2-1.31-0.2-1.96s0.07-1.31,0.2-1.95c0.13-0.64,0.32-1.27,0.57-1.87
	c0.25-0.61,0.56-1.19,0.92-1.73c0.36-0.55,0.78-1.06,1.24-1.52c2.32-2.32,5.77-3.38,9.03-2.73c0.63,0.13,1.26,0.32,1.87,0.57
	c0.6,0.25,1.18,0.56,1.72,0.92c0.55,0.36,1.06,0.78,1.52,1.24c0.46,0.46,0.88,0.97,1.25,1.52c0.36,0.54,0.67,1.12,0.92,1.73
	c0.25,0.6,0.44,1.23,0.57,1.87c0.13,0.64,0.19,1.3,0.19,1.95s-0.06,1.31-0.19,1.96c-0.13,0.63-0.32,1.26-0.57,1.87
	c-0.25,0.6-0.56,1.18-0.92,1.72c-0.37,0.55-0.79,1.06-1.25,1.52c-0.46,0.46-0.97,0.88-1.52,1.25c-0.54,0.36-1.12,0.67-1.72,0.92
	c-0.61,0.25-1.24,0.44-1.87,0.57C167.831,140.14,167.171,140.2,166.521,140.2z"/>
<rect x="240.061" y="443.11" style="fill:#FFFBA1;" width="31.88" height="31.88"/>
<path d="M271.941,484.985h-31.88c-5.523,0-10-4.477-10-10v-31.88c0-5.523,4.477-10,10-10h31.88c5.523,0,10,4.477,10,10v31.88
	C281.941,480.508,277.464,484.985,271.941,484.985z M250.061,464.985h11.88v-11.88h-11.88V464.985z"/>
<path style="fill:#FFAE4D;" d="M312.491,185.507c-4.864-6.198-14.267-8.284-19.323-8.344c-11.155-0.132-21.867-4.01-31.237-10.065
	c-4.184-2.703-9.147-4.634-15.19-4.634c-36.4,0-52.351,29.322-52.351,54.143c0,26.488,6.689,34.509,6.689,34.509
	s3.97-20.399,31.244-20.399c18.234,0,47.679-5.365,55.347-14.248c3.259,8.491,19.801,35.421,19.801,35.421
	S326.444,203.571,312.491,185.507z"/>
<path style="fill:#FFFBA1;" d="M232.322,230.717c-21.586,0-28.57,12.77-30.546,18.1v4.597c0,22.373,13.911,41.486,33.549,49.196
	l-8.326,23.951c14.513,16.956,40.735,16.956,55.248,0l-8.326-23.951c19.638-7.71,33.549-26.822,33.549-49.196v-1.525
	c0,0-16.543-26.93-19.801-35.42C280.001,225.352,250.556,230.717,232.322,230.717z"/>
<path style="fill:#1578BE;" d="M316.624,326.015h-34.567l0.19,0.546c-14.513,16.956-40.735,16.956-55.248,0l0.19-0.546h-31.811
	c-10.575,0-19.148,8.572-19.148,19.148v70.927h159.542v-70.927C335.772,334.587,327.199,326.015,316.624,326.015z"/>
<path d="M358.937,0H153.065c-27.336,0-49.576,22.24-49.576,49.576v15.618V416.09v46.334c0,27.336,22.24,49.576,49.576,49.576
	h205.871c27.336,0,49.576-22.24,49.576-49.576V416.09V65.194V49.576C408.512,22.24,386.273,0,358.937,0z M204.389,216.607
	c0-15.268,8.852-44.143,42.352-44.143c3.458,0,6.561,0.964,9.763,3.033c11.585,7.486,24.223,11.52,36.547,11.665
	c3.386,0.039,9.271,1.622,11.551,4.489c4.663,6.096,3.341,21.158-0.043,35.69c-0.217-0.381-0.431-0.76-0.644-1.135
	c-0.007-0.011-0.013-0.023-0.019-0.034c-0.201-0.355-0.399-0.707-0.596-1.057c-0.023-0.041-0.046-0.082-0.069-0.123
	c-0.184-0.328-0.366-0.653-0.545-0.976c-0.031-0.056-0.062-0.112-0.093-0.167c-0.168-0.302-0.334-0.602-0.498-0.898
	c-0.044-0.079-0.087-0.157-0.13-0.235c-0.154-0.279-0.306-0.555-0.455-0.828c-0.047-0.086-0.094-0.172-0.14-0.257
	c-0.142-0.26-0.282-0.518-0.42-0.772c-0.055-0.101-0.109-0.201-0.163-0.301c-0.124-0.23-0.247-0.459-0.367-0.684
	c-0.065-0.122-0.128-0.241-0.192-0.36c-0.109-0.205-0.217-0.408-0.322-0.607c-0.07-0.133-0.138-0.264-0.207-0.394
	c-0.092-0.176-0.185-0.353-0.274-0.524c-0.075-0.145-0.148-0.286-0.221-0.428c-0.08-0.156-0.161-0.312-0.238-0.464
	c-0.078-0.152-0.151-0.299-0.225-0.447c-0.065-0.129-0.131-0.26-0.193-0.385c-0.085-0.171-0.165-0.335-0.245-0.498
	c-0.047-0.096-0.096-0.196-0.142-0.29c-0.085-0.176-0.164-0.343-0.243-0.509c-0.036-0.076-0.074-0.156-0.109-0.229
	c-0.091-0.195-0.176-0.381-0.257-0.562c-0.016-0.037-0.035-0.076-0.051-0.113c-0.195-0.437-0.36-0.83-0.493-1.175
	c-0.788-2.052-2.213-3.752-4.017-4.885c-1.082-0.68-2.301-1.157-3.6-1.383c-3.466-0.607-6.992,0.654-9.29,3.317
	c-4.063,4.709-27.962,10.783-47.777,10.783c-0.819,0-1.62,0.019-2.41,0.05c-0.34,0.013-0.67,0.036-1.004,0.054
	c-0.421,0.024-0.842,0.047-1.254,0.079c-0.446,0.034-0.883,0.077-1.319,0.121c-0.256,0.026-0.511,0.052-0.764,0.082
	c-0.536,0.062-1.063,0.13-1.583,0.206c-0.089,0.013-0.178,0.027-0.267,0.041c-8.035,1.214-14.145,4.071-18.742,7.467
	C204.62,225.398,204.389,221.353,204.389,216.607z M211.776,250.841c0.909-1.854,2.411-3.981,4.86-5.806
	c0.141-0.104,0.287-0.206,0.434-0.307c0.129-0.09,0.264-0.179,0.398-0.267c1.818-1.185,4.122-2.228,7.037-2.909
	c0.128-0.03,0.259-0.058,0.389-0.086c0.44-0.096,0.894-0.184,1.361-0.264c0.412-0.069,0.827-0.136,1.26-0.191
	c0.248-0.032,0.509-0.055,0.765-0.082c0.413-0.043,0.833-0.081,1.266-0.11c0.227-0.016,0.454-0.031,0.686-0.043
	c0.676-0.034,1.366-0.058,2.089-0.058c11.898,0,35.691-2.539,51.373-9.737c0.261,0.481,0.527,0.967,0.796,1.457
	c0.061,0.111,0.122,0.222,0.183,0.333c0.262,0.475,0.526,0.952,0.794,1.432c0.05,0.091,0.101,0.181,0.152,0.272
	c0.242,0.433,0.485,0.867,0.73,1.302c0.052,0.092,0.104,0.184,0.156,0.277c0.272,0.482,0.545,0.963,0.819,1.445
	c0.07,0.123,0.14,0.246,0.211,0.37c0.273,0.479,0.546,0.957,0.82,1.434c0.017,0.029,0.033,0.058,0.05,0.087
	c0.273,0.476,0.546,0.949,0.819,1.42c0.071,0.122,0.141,0.243,0.211,0.365c0.27,0.467,0.54,0.93,0.807,1.39
	c0.061,0.105,0.122,0.209,0.183,0.313c0.232,0.397,0.462,0.79,0.69,1.18c0.061,0.103,0.121,0.207,0.182,0.31
	c0.261,0.444,0.518,0.881,0.773,1.314c0.072,0.121,0.143,0.241,0.214,0.362c0.248,0.42,0.494,0.836,0.735,1.243
	c0.029,0.049,0.058,0.097,0.087,0.146c0.241,0.407,0.478,0.804,0.71,1.194c0.062,0.104,0.123,0.207,0.184,0.309
	c0.236,0.396,0.467,0.783,0.693,1.16c0.044,0.073,0.086,0.143,0.129,0.215c0.224,0.374,0.443,0.739,0.654,1.091
	c0.013,0.022,0.027,0.045,0.04,0.066c0.226,0.376,0.444,0.737,0.654,1.085c0.035,0.058,0.069,0.114,0.103,0.171
	c0.422,0.699,0.807,1.334,1.148,1.896c0.01,0.016,0.022,0.036,0.032,0.052c-0.491,17.222-11.051,32.296-27.186,38.631
	c-4.998,1.962-7.554,7.52-5.791,12.592l6.225,17.907c-0.056,0.043-0.112,0.085-0.168,0.128c-0.511,0.388-1.032,0.761-1.569,1.109
	c-0.032,0.021-0.065,0.039-0.097,0.06c-0.526,0.338-1.064,0.653-1.612,0.952c-0.086,0.047-0.171,0.096-0.258,0.142
	c-0.55,0.293-1.112,0.563-1.682,0.816c-0.112,0.05-0.224,0.098-0.337,0.146c-0.577,0.246-1.161,0.476-1.755,0.681
	c-0.078,0.027-0.157,0.05-0.235,0.076c-0.583,0.195-1.172,0.371-1.769,0.525c-0.062,0.016-0.122,0.035-0.184,0.05
	c-0.616,0.154-1.24,0.281-1.868,0.391c-0.119,0.021-0.238,0.042-0.358,0.061c-0.62,0.099-1.244,0.178-1.873,0.233
	c-0.109,0.01-0.219,0.016-0.328,0.024c-0.659,0.049-1.321,0.082-1.987,0.082c-0.666,0-1.328-0.033-1.987-0.082
	c-0.109-0.008-0.219-0.014-0.328-0.024c-0.628-0.055-1.252-0.134-1.871-0.233c-0.121-0.02-0.242-0.041-0.363-0.062
	c-0.626-0.109-1.249-0.236-1.863-0.39c-0.065-0.016-0.129-0.036-0.194-0.053c-0.591-0.153-1.175-0.327-1.753-0.52
	c-0.082-0.027-0.166-0.052-0.248-0.08c-0.591-0.204-1.172-0.432-1.746-0.677c-0.116-0.049-0.231-0.099-0.346-0.15
	c-0.567-0.252-1.126-0.521-1.674-0.813c-0.089-0.048-0.176-0.098-0.265-0.147c-0.544-0.297-1.08-0.611-1.603-0.947
	c-0.034-0.022-0.069-0.041-0.102-0.063c-0.536-0.348-1.058-0.722-1.569-1.11c-0.055-0.042-0.111-0.084-0.166-0.126l6.225-17.907
	c1.763-5.071-0.793-10.63-5.791-12.592c-16.525-6.488-27.204-22.145-27.204-39.888v-2.573H211.776z M222.159,336.015
	c0.132,0.129,0.271,0.25,0.404,0.378c0.246,0.236,0.495,0.467,0.746,0.697c0.341,0.313,0.686,0.62,1.036,0.922
	c0.257,0.222,0.515,0.442,0.777,0.658c0.359,0.297,0.724,0.585,1.092,0.871c0.261,0.203,0.521,0.406,0.786,0.603
	c0.388,0.288,0.783,0.565,1.179,0.84c0.254,0.177,0.506,0.358,0.764,0.53c0.442,0.294,0.893,0.575,1.345,0.853
	c0.221,0.136,0.437,0.279,0.66,0.412c0.677,0.403,1.363,0.79,2.06,1.157c0.023,0.012,0.046,0.022,0.069,0.034
	c0.675,0.355,1.36,0.691,2.052,1.012c0.238,0.11,0.481,0.21,0.721,0.316c0.481,0.213,0.962,0.425,1.45,0.621
	c0.288,0.116,0.58,0.222,0.87,0.332c0.448,0.17,0.897,0.338,1.351,0.495c0.31,0.107,0.623,0.206,0.935,0.306
	c0.442,0.142,0.885,0.279,1.331,0.408c0.323,0.093,0.646,0.181,0.971,0.266c0.445,0.118,0.892,0.229,1.341,0.333
	c0.327,0.076,0.655,0.15,0.984,0.22c0.457,0.096,0.916,0.182,1.376,0.264c0.325,0.058,0.65,0.117,0.976,0.168
	c0.48,0.075,0.962,0.137,1.445,0.197c0.31,0.039,0.619,0.082,0.93,0.114c0.535,0.056,1.072,0.094,1.61,0.132
	c0.263,0.018,0.524,0.044,0.787,0.058c0.802,0.042,1.608,0.066,2.416,0.066c0.808,0,1.613-0.024,2.416-0.066
	c0.263-0.014,0.525-0.04,0.787-0.058c0.538-0.037,1.076-0.076,1.61-0.132c0.311-0.032,0.62-0.076,0.93-0.114
	c0.483-0.06,0.965-0.122,1.445-0.197c0.327-0.051,0.651-0.11,0.976-0.168c0.46-0.082,0.919-0.168,1.376-0.264
	c0.329-0.069,0.657-0.143,0.984-0.22c0.449-0.104,0.896-0.216,1.341-0.333c0.325-0.086,0.649-0.174,0.971-0.266
	c0.446-0.129,0.889-0.266,1.331-0.408c0.313-0.1,0.625-0.199,0.935-0.306c0.454-0.156,0.902-0.325,1.351-0.495
	c0.29-0.11,0.582-0.216,0.87-0.332c0.488-0.197,0.969-0.408,1.45-0.621c0.24-0.106,0.483-0.205,0.721-0.316
	c0.692-0.321,1.376-0.657,2.052-1.012c0.023-0.012,0.046-0.022,0.069-0.034c0.696-0.367,1.382-0.755,2.06-1.157
	c0.223-0.132,0.439-0.275,0.66-0.412c0.452-0.279,0.902-0.559,1.345-0.853c0.258-0.172,0.509-0.353,0.764-0.53
	c0.396-0.275,0.791-0.552,1.179-0.84c0.265-0.197,0.525-0.4,0.786-0.603c0.367-0.285,0.732-0.574,1.092-0.871
	c0.262-0.216,0.52-0.436,0.777-0.658c0.349-0.302,0.694-0.609,1.036-0.922c0.251-0.23,0.5-0.462,0.746-0.697
	c0.133-0.128,0.272-0.248,0.404-0.378h29.537c5.044,0,9.148,4.104,9.148,9.147v60.928H186.23v-60.928
	c0-5.044,4.103-9.147,9.147-9.147H222.159z M316.624,316.015h-27.456l-2.884-8.296c19.125-11.08,31.074-31.364,31.181-53.998
	c1.488-4.052,5.056-14.349,7.536-26.201c4.606-22.021,3.06-38.213-4.596-48.126c-0.016-0.02-0.031-0.04-0.047-0.06
	c-6.928-8.829-18.914-12.074-27.072-12.17c-8.548-0.101-17.514-3.027-25.927-8.464c-6.402-4.138-13.339-6.235-20.618-6.235
	c-40.934,0-62.352,32.268-62.352,64.143c0,22.767,4.578,33.913,7.417,38.631c0.621,22.021,12.459,41.65,31.156,52.481l-2.884,8.296
	h-24.7c-16.072,0-29.147,13.076-29.147,29.147v60.928H123.49v-299.41h185.858c5.523,0,10-4.477,10-10s-4.477-10-10-10H123.49V75.194
	h265.022v45.009H202.654c-5.523,0-10,4.477-10,10c0,5.523,4.477,10,10,10h185.858V406.09h-42.74v-60.928
	C345.772,329.091,332.696,316.015,316.624,316.015z M123.49,49.576C123.49,33.268,136.758,20,153.066,20h205.871
	c16.308,0,29.576,13.268,29.576,29.576v5.618H123.49V49.576z M388.512,462.424c0,16.308-13.267,29.576-29.576,29.576H153.065
	c-16.308,0-29.576-13.268-29.576-29.576V426.09h52.741h159.541h52.74v36.334H388.512z"/>
<g>
</g>
<g>
</g>
<g>
</g>
<g>
</g>
<g>
</g>
<g>
</g>
<g>
</g>
<g>
</g>
<g>
</g>
<g>
</g>
<g>
</g>
<g>
</g>
<g>
</g>
<g>
</g>
<g>
</g>
</svg>
