<?xml version="1.0" encoding="iso-8859-1"?>
<!-- Generator: Adobe Illustrator 19.0.0, SVG Export Plug-In . SVG Version: 6.00 Build 0)  -->
<svg version="1.1" id="Capa_1" xmlns="http://www.w3.org/2000/svg" xmlns:xlink="http://www.w3.org/1999/xlink" x="0px" y="0px"
	 viewBox="0 0 512 512" style="enable-background:new 0 0 512 512;" xml:space="preserve">
<g>
	<circle style="fill:#FDCC99;" cx="327.15" cy="37.75" r="27.75"/>
	<circle style="fill:#FDCC99;" cx="184.85" cy="37.75" r="27.75"/>
</g>
<path style="fill:#098287;" d="M298.705,269.526h-85.411c-49.839,0-90.241-40.402-90.241-90.241v-4.026
	c0-49.839,40.402-90.241,90.241-90.241h85.411c49.839,0,90.241,40.402,90.241,90.241v4.026
	C388.946,229.123,348.544,269.526,298.705,269.526z"/>
<path d="M337.147,82.687v-8.542c15.976-4.395,27.75-19.042,27.75-36.395c0-20.815-16.935-37.75-37.75-37.75
	s-37.75,16.935-37.75,37.75c0,17.354,11.774,32,27.75,36.395v2.58c-5.98-1.117-12.143-1.707-18.442-1.707h-85.41
	c-6.299,0-12.462,0.59-18.442,1.707v-2.58c15.976-4.395,27.75-19.042,27.75-36.395c0-20.815-16.935-37.75-37.75-37.75
	s-37.75,16.935-37.75,37.75c0,17.354,11.774,32,27.75,36.395v8.542c-36.25,15.11-61.799,50.911-61.799,92.572v4.025
	c0,55.273,44.968,100.241,100.241,100.241h85.41c55.273,0,100.241-44.968,100.241-100.241v-4.025
	C398.946,133.598,373.398,97.797,337.147,82.687z M309.397,37.75c0-9.788,7.963-17.75,17.75-17.75s17.75,7.962,17.75,17.75
	s-7.963,17.75-17.75,17.75S309.397,47.538,309.397,37.75z M167.103,37.75c0-9.788,7.963-17.75,17.75-17.75s17.75,7.962,17.75,17.75
	s-7.963,17.75-17.75,17.75S167.103,47.538,167.103,37.75z M378.946,179.285c0,44.245-35.996,80.241-80.241,80.241h-85.41
	c-44.245,0-80.241-35.996-80.241-80.241v-4.025c0-44.245,35.996-80.241,80.241-80.241h85.41c44.245,0,80.241,35.996,80.241,80.241
	V179.285z"/>
<path style="fill:#DBDBDB;" d="M215.307,235.437c-32.072,0-58.165-26.093-58.165-58.165s26.093-58.165,58.165-58.165h81.385
	c32.072,0,58.165,26.093,58.165,58.165s-26.093,58.165-58.165,58.165L215.307,235.437L215.307,235.437z"/>
<path d="M296.692,245.437h-81.385c-37.586,0-68.165-30.579-68.165-68.165s30.579-68.165,68.165-68.165h81.385
	c37.586,0,68.165,30.579,68.165,68.165S334.278,245.437,296.692,245.437z M215.308,129.107c-26.559,0-48.165,21.607-48.165,48.165
	s21.606,48.165,48.165,48.165h81.385c26.559,0,48.165-21.607,48.165-48.166c0-26.558-21.606-48.165-48.165-48.165L215.308,129.107
	L215.308,129.107z"/>
<circle style="fill:#2DA0A4;" cx="210.95" cy="177.27" r="23.636"/>
<path d="M210.95,210.907c-18.547,0-33.636-15.089-33.636-33.635c0-18.547,15.089-33.636,33.636-33.636s33.636,15.089,33.636,33.636
	C244.586,195.818,229.497,210.907,210.95,210.907z M210.95,163.636c-7.519,0-13.636,6.117-13.636,13.636s6.117,13.635,13.636,13.635
	s13.636-6.117,13.636-13.635S218.469,163.636,210.95,163.636z"/>
<circle style="fill:#2DA0A4;" cx="301.05" cy="177.27" r="23.636"/>
<path d="M301.05,210.907c-18.547,0-33.636-15.089-33.636-33.635c0-18.547,15.089-33.636,33.636-33.636s33.636,15.089,33.636,33.636
	C334.686,195.818,319.597,210.907,301.05,210.907z M301.05,163.636c-7.519,0-13.636,6.117-13.636,13.636s6.117,13.635,13.636,13.635
	s13.636-6.117,13.636-13.635S308.568,163.636,301.05,163.636z"/>
<g>
	<circle style="fill:#2DA0A4;" cx="423.76" cy="372.1" r="19"/>
	<circle style="fill:#2DA0A4;" cx="88.24" cy="372.1" r="19"/>
</g>
<path style="fill:#B3BBC2;" d="M371.807,386.193c0,6.74-0.574,13.335-1.685,19.759C360.75,460.5,313.219,502,256,502
	s-104.75-41.5-114.122-96.048c-1.111-6.424-1.685-13.019-1.685-19.759c0-16.093,3.284-31.41,9.209-45.339
	c6.414-15.049,15.92-28.461,27.724-39.451h157.747c11.804,10.99,21.31,24.402,27.724,39.451
	C368.523,354.783,371.807,370.1,371.807,386.193z"/>
<g>
	<path style="fill:#DBDBDB;" d="M150.618,338.103c4.436-9.698,10.177-18.67,16.989-26.711c-1.881-11.16-11.584-19.663-23.279-19.663
		c-13.042,0-23.614,10.572-23.614,23.614s10.572,23.614,23.614,23.614C146.508,338.957,148.615,338.655,150.618,338.103z"/>
	<path style="fill:#DBDBDB;" d="M367.671,291.729c-11.695,0-21.397,8.496-23.277,19.656c6.812,8.041,12.552,17.021,16.988,26.719
		c2.003,0.552,4.111,0.854,6.289,0.854c13.042,0,23.614-10.572,23.614-23.614S380.713,291.729,367.671,291.729z"/>
</g>
<path style="fill:#858A8F;" d="M371.807,386.193c0,6.74-0.574,13.335-1.685,19.759H141.878c-1.111-6.424-1.685-13.019-1.685-19.759
	c0-16.093,3.284-31.41,9.209-45.339h213.195C368.523,354.783,371.807,370.1,371.807,386.193z"/>
<path d="M333.24,383.4c-0.65,0-1.311-0.06-1.96-0.19c-0.631-0.13-1.261-0.32-1.87-0.57c-0.601-0.25-1.181-0.56-1.721-0.92
	c-0.55-0.37-1.06-0.78-1.52-1.24c-0.46-0.47-0.88-0.98-1.25-1.53c-0.36-0.54-0.67-1.12-0.92-1.72c-0.25-0.61-0.44-1.23-0.561-1.87
	c-0.13-0.65-0.199-1.3-0.199-1.96c0-0.65,0.069-1.31,0.199-1.95c0.12-0.64,0.311-1.27,0.561-1.87c0.25-0.61,0.56-1.19,0.92-1.73
	c0.37-0.55,0.79-1.06,1.25-1.52s0.97-0.88,1.52-1.24c0.54-0.36,1.12-0.67,1.721-0.92c0.609-0.25,1.239-0.44,1.87-0.57
	c1.289-0.26,2.619-0.26,3.909,0c0.641,0.13,1.271,0.32,1.87,0.57c0.61,0.25,1.19,0.56,1.73,0.92c0.55,0.36,1.06,0.78,1.52,1.24
	s0.88,0.97,1.24,1.52c0.36,0.54,0.67,1.12,0.92,1.73c0.25,0.6,0.44,1.23,0.57,1.87c0.13,0.64,0.2,1.3,0.2,1.95
	c0,0.66-0.07,1.31-0.2,1.96c-0.13,0.64-0.32,1.26-0.57,1.87c-0.25,0.6-0.56,1.18-0.92,1.72c-0.36,0.55-0.78,1.06-1.24,1.53
	c-0.46,0.46-0.97,0.87-1.52,1.24c-0.54,0.36-1.12,0.67-1.73,0.92c-0.6,0.25-1.229,0.44-1.87,0.57
	C334.55,383.34,333.89,383.4,333.24,383.4z"/>
<path d="M191.55,447.54c-2.63,0-5.21-1.07-7.07-2.93c-0.46-0.46-0.88-0.97-1.239-1.52c-0.36-0.54-0.671-1.12-0.921-1.73
	c-0.25-0.6-0.439-1.23-0.569-1.87c-0.13-0.64-0.19-1.3-0.19-1.95c0-0.65,0.061-1.31,0.19-1.95s0.319-1.27,0.569-1.87
	c0.25-0.61,0.561-1.19,0.921-1.73c0.359-0.55,0.779-1.06,1.239-1.52c2.32-2.32,5.78-3.39,9.03-2.73c0.64,0.12,1.271,0.32,1.87,0.57
	s1.18,0.56,1.729,0.92c0.54,0.36,1.051,0.78,1.511,1.24c0.47,0.46,0.88,0.97,1.25,1.52c0.359,0.54,0.67,1.12,0.92,1.73
	c0.25,0.6,0.439,1.23,0.569,1.87c0.131,0.64,0.19,1.3,0.19,1.95c0,0.65-0.06,1.31-0.19,1.95s-0.319,1.27-0.569,1.87
	c-0.25,0.61-0.561,1.19-0.92,1.73c-0.37,0.55-0.78,1.06-1.25,1.52c-0.46,0.46-0.971,0.88-1.511,1.24
	c-0.55,0.37-1.13,0.67-1.729,0.92c-0.6,0.26-1.23,0.45-1.87,0.58C192.859,447.48,192.21,447.54,191.55,447.54z"/>
<path d="M444.265,351.589c-9.654-9.654-24.475-11.058-35.64-4.227l-14.468-11.358c4.46-5.705,7.128-12.875,7.128-20.661
	c0-18.535-15.079-33.614-33.614-33.614c-10.43,0-19.84,4.726-26.036,12.31c-1.844-1.693-4.256-2.636-6.761-2.636H177.126
	c-2.506,0-4.918,0.943-6.763,2.637c-6.196-7.585-15.605-12.312-26.034-12.312c-18.535,0-33.614,15.079-33.614,33.614
	c0,7.786,2.668,14.956,7.128,20.661l-14.468,11.359c-11.166-6.831-25.987-5.426-35.64,4.227c-11.307,11.307-11.307,29.706,0,41.013
	c5.653,5.653,13.08,8.48,20.507,8.48c7.426,0,14.853-2.827,20.506-8.48c7.981-7.981,10.321-19.494,7.034-29.553l19.527-15.331
	c0.27,0.075,0.539,0.153,0.812,0.221c-3.932,12.316-5.928,25.136-5.928,38.254c0,0.931,0.011,1.863,0.032,2.794
	c0.138,6.281,0.741,12.547,1.797,18.658c4.963,28.886,20.054,55.309,42.493,74.402C197.216,501.363,226.154,512,256,512
	s58.784-10.637,81.484-29.953c22.439-19.093,37.53-45.516,42.491-74.392c1.215-7.028,1.831-14.249,1.831-21.462
	c0-1.067-0.013-2.132-0.04-3.195c-0.028-1.125-0.073-2.248-0.13-3.368c-0.101-1.97-0.247-3.933-0.439-5.887
	c-0.015-0.151-0.029-0.302-0.044-0.453c-0.876-8.635-2.643-17.105-5.276-25.351c0.272-0.069,0.542-0.146,0.812-0.221l19.527,15.331
	c-3.286,10.06-0.946,21.572,7.035,29.553c5.653,5.653,13.08,8.48,20.506,8.48c7.427,0,14.854-2.827,20.507-8.48
	C455.571,381.294,455.571,362.896,444.265,351.589z M150.651,395.952c-0.01-0.108-0.025-0.214-0.034-0.322
	c-0.093-1.05-0.154-2.104-0.216-3.158c-0.03-0.517-0.076-1.032-0.099-1.549c-0.07-1.575-0.108-3.152-0.108-4.73
	c0-0.933,0.034-1.86,0.058-2.79h147.566c5.522,0,10-4.477,10-10s-4.478-10-10-10H152.654c0.281-1.28,0.581-2.555,0.91-3.824
	c0.041-0.157,0.085-0.313,0.127-0.469c0.326-1.234,0.675-2.463,1.046-3.686c0.043-0.141,0.083-0.283,0.126-0.425
	c0.389-1.263,0.808-2.518,1.246-3.768c0.044-0.126,0.089-0.252,0.134-0.378h199.516c0.047,0.132,0.094,0.265,0.14,0.397
	c0.434,1.24,0.849,2.484,1.235,3.737c0.048,0.155,0.091,0.311,0.138,0.466c0.366,1.206,0.709,2.417,1.031,3.633
	c0.044,0.168,0.092,0.335,0.136,0.503c0.327,1.264,0.626,2.534,0.906,3.809c0.056,0.258,0.113,0.516,0.167,0.774
	c0.269,1.27,0.517,2.545,0.739,3.825c0.035,0.203,0.066,0.407,0.1,0.611c0.211,1.264,0.402,2.532,0.567,3.805
	c0.013,0.105,0.03,0.209,0.043,0.314c0.167,1.319,0.303,2.644,0.42,3.973c0.022,0.253,0.046,0.506,0.066,0.76
	c0.105,1.3,0.188,2.604,0.247,3.913c0.01,0.236,0.017,0.473,0.026,0.709c0.052,1.367,0.086,2.736,0.086,4.111
	c0,1.577-0.039,3.154-0.108,4.729c-0.023,0.525-0.07,1.047-0.1,1.571c-0.062,1.046-0.123,2.092-0.215,3.134
	c-0.01,0.109-0.025,0.217-0.035,0.326L150.651,395.952L150.651,395.952z M367.671,301.729c7.507,0,13.614,6.107,13.614,13.614
	c0,7.377-5.899,13.403-13.229,13.608c-0.029-0.056-0.059-0.111-0.088-0.167c-0.402-0.784-0.814-1.562-1.231-2.336
	c-0.025-0.046-0.05-0.093-0.075-0.139c-3.252-6.009-6.973-11.722-11.154-17.11C357.763,304.708,362.395,301.729,367.671,301.729z
	 M330.839,311.403c2.158,2.156,4.196,4.404,6.146,6.715c0.568,0.675,1.124,1.358,1.674,2.046c0.31,0.387,0.615,0.778,0.92,1.17
	c1.863,2.396,3.619,4.867,5.266,7.406c0.282,0.435,0.564,0.87,0.84,1.309c0.167,0.267,0.328,0.537,0.493,0.805H165.825
	c0.185-0.301,0.365-0.605,0.553-0.904c0.213-0.339,0.431-0.674,0.648-1.01c1.746-2.703,3.615-5.332,5.607-7.876
	c0.178-0.227,0.355-0.454,0.535-0.68c0.646-0.811,1.301-1.615,1.971-2.409c1.913-2.261,3.909-4.462,6.023-6.574h149.677V311.403z
	 M144.329,301.729c5.274,0,9.907,2.98,12.16,7.473c-4.184,5.393-7.908,11.111-11.162,17.127c-0.018,0.033-0.035,0.066-0.053,0.099
	c-0.421,0.779-0.835,1.562-1.24,2.352c-0.03,0.058-0.061,0.115-0.091,0.172c-7.329-0.205-13.229-6.23-13.229-13.608
	C130.715,307.836,136.822,301.729,144.329,301.729z M94.605,378.459c-1.699,1.7-3.96,2.636-6.364,2.636
	c-2.403,0-4.664-0.936-6.363-2.636c-3.51-3.509-3.51-9.219,0-12.728c1.699-1.7,3.96-2.636,6.363-2.636
	c2.404,0,4.665,0.936,6.364,2.636c1.7,1.7,2.636,3.96,2.636,6.364S96.306,376.759,94.605,378.459z M256,492
	c-47.621,0-88.569-31.342-101.548-76.048h203.097c-1.152,3.971-2.512,7.841-4.091,11.588H226.976c-5.522,0-10,4.477-10,10
	s4.478,10,10,10h115.35C323.035,474.726,291.353,492,256,492z M430.122,378.459c-1.699,1.7-3.96,2.636-6.363,2.636
	c-2.404,0-4.665-0.936-6.364-2.636c-1.7-1.7-2.636-3.96-2.636-6.364s0.936-4.664,2.636-6.364c1.699-1.7,3.96-2.636,6.364-2.636
	c2.403,0,4.664,0.936,6.363,2.636C433.632,369.24,433.632,374.95,430.122,378.459z"/>
<g>
</g>
<g>
</g>
<g>
</g>
<g>
</g>
<g>
</g>
<g>
</g>
<g>
</g>
<g>
</g>
<g>
</g>
<g>
</g>
<g>
</g>
<g>
</g>
<g>
</g>
<g>
</g>
<g>
</g>
</svg>
