<?xml version="1.0" encoding="iso-8859-1"?>
<!-- Generator: Adobe Illustrator 19.0.0, SVG Export Plug-In . SVG Version: 6.00 Build 0)  -->
<svg version="1.1" id="Capa_1" xmlns="http://www.w3.org/2000/svg" xmlns:xlink="http://www.w3.org/1999/xlink" x="0px" y="0px"
	 viewBox="0 0 512 512" style="enable-background:new 0 0 512 512;" xml:space="preserve">
<path style="fill:#DC9E5E;" d="M231.02,152.273v-4.47c0-0.754-0.013-1.516-0.038-2.288c-1.249-38.206-35.263-67.052-73.308-63.332
	c0,0-52.699,6.537-85.784,8.387c-20.579,1.151-27.676,31.631-27.676,53.815v7.888v8.845l4.784,68.31
	c24.684,0,31.75-32.954,31.75-57.637v-9.846l12.228,3.221c29.29,7.716,60.05,7.937,89.448,0.642l13.924-3.456
	c5.495,18.46-0.816,67.075,29.889,67.075L231.02,152.273L231.02,152.273z"/>
<path style="fill:#F9E2A1;" d="M196.347,162.353l-13.924,3.456c-29.397,7.295-60.158,7.074-89.447-0.642l-12.228-3.221v9.846
	c0,20.955-5.099,47.859-21.74,55.512v1.08c0,33.28,20.692,61.709,49.904,73.178l-8.095,31.658l36.8,25.428l36.8-25.428
	l-8.095-31.657c29.212-11.469,49.904-39.898,49.904-73.178v-1.152C196.948,217.556,201.144,178.467,196.347,162.353z"/>
<path style="fill:#4B596E;" d="M238.018,331.72h-63.984l0.383,1.498l-36.8,25.428l-36.8-25.428l0.383-1.498H37.217
	C22.193,331.72,10,343.913,10,358.937V502h255.234V358.937C265.234,343.913,253.054,331.72,238.018,331.72z"/>
<polygon style="fill:#BEE6F2;" points="174.417,333.218 137.617,358.646 100.817,333.218 101.2,331.72 72.756,331.72 98.026,502 
	177.208,502 202.479,331.72 174.034,331.72 "/>
<polygon style="fill:#3C95B1;" points="137.617,358.646 116.38,343.972 104.976,450.332 137.617,483.751 170.258,450.332 
	158.854,343.972 "/>
<path d="M370.44,512c-0.65,0-1.31-0.06-1.949-0.19c-0.641-0.13-1.271-0.33-1.87-0.58c-0.61-0.25-1.19-0.56-1.73-0.92
	c-0.55-0.36-1.059-0.78-1.52-1.24c-0.46-0.46-0.88-0.97-1.24-1.52c-0.36-0.54-0.67-1.12-0.92-1.73c-0.25-0.6-0.44-1.23-0.57-1.87
	c-0.13-0.64-0.2-1.3-0.2-1.95c0-0.65,0.07-1.31,0.2-1.95s0.32-1.27,0.57-1.87c0.25-0.61,0.56-1.19,0.92-1.73
	c0.36-0.55,0.78-1.06,1.24-1.52s0.97-0.88,1.52-1.24c0.54-0.36,1.12-0.67,1.73-0.92c0.6-0.25,1.23-0.44,1.87-0.57
	c1.29-0.26,2.619-0.26,3.909,0c0.631,0.13,1.261,0.32,1.87,0.57c0.601,0.25,1.181,0.56,1.721,0.92c0.55,0.36,1.06,0.78,1.52,1.24
	s0.88,0.97,1.25,1.52c0.36,0.54,0.67,1.12,0.92,1.73c0.25,0.6,0.44,1.23,0.57,1.87s0.19,1.3,0.19,1.95c0,0.65-0.06,1.31-0.19,1.95
	s-0.32,1.27-0.57,1.87c-0.25,0.61-0.56,1.19-0.92,1.73c-0.37,0.55-0.79,1.06-1.25,1.52s-0.97,0.88-1.52,1.24
	c-0.54,0.36-1.12,0.67-1.721,0.92c-0.609,0.25-1.239,0.45-1.87,0.58C371.75,511.94,371.09,512,370.44,512z"/>
<path d="M333.109,492h-57.875V358.936c0-20.521-16.695-37.216-37.217-37.216h-35.539h-20.68l-3.711-14.512
	c12.907-6.622,23.98-16.3,32.354-28.352c8.214-11.822,13.336-25.286,15.092-39.437c0.235,0.004,0.471,0.009,0.702,0.009
	c5.282,0,9.654-4.109,9.98-9.381l4.784-77.155c0.013-0.206,0.019-0.412,0.019-0.619v-4.47c0-0.862-0.015-1.735-0.043-2.615
	c-0.685-20.94-9.817-40.156-25.712-54.106c-16.014-14.053-37.357-20.923-58.564-18.851c-0.087,0.008-0.173,0.018-0.259,0.029
	c-0.523,0.065-52.748,6.517-85.111,8.327c-13.103,0.733-23.842,9.679-30.241,25.191c-4.37,10.594-6.876,24.666-6.876,38.608v16.732
	c0,0.233,0.008,0.466,0.024,0.699l4.784,68.31c0.367,5.239,4.724,9.301,9.976,9.301c0.236,0,0.465-0.022,0.7-0.027
	c1.755,14.158,6.877,27.628,15.095,39.455c8.373,12.051,19.447,21.73,32.354,28.351l-3.711,14.512h-20.68H37.217
	C16.695,321.72,0,338.415,0,358.936V502c0,5.523,4.477,10,10,10h14.341h73.686h79.182h88.026h67.875c5.522,0,10-4.477,10-10
	C343.109,496.477,338.632,492,333.109,492z M177.988,428.622l-8.558-79.803l10.273-7.099h11.181L177.988,428.622z M159.814,446.714
	l-22.196,22.726l-22.196-22.726l9.11-84.955l7.401,5.114c0.428,0.296,0.872,0.554,1.33,0.776c2.747,1.33,5.962,1.33,8.709,0
	c0.458-0.222,0.903-0.48,1.33-0.776l7.401-5.114L159.814,446.714z M54.214,144.386c0-21.044,6.82-43.192,18.234-43.83
	c32.535-1.82,82.719-7.986,86.322-8.432c15.677-1.497,31.459,3.597,43.302,13.99c11.695,10.264,18.413,24.373,18.916,39.73
	c0.021,0.661,0.032,1.314,0.032,1.959v4.161l-3.915,63.144c-0.813-1.03-1.541-2.252-2.2-3.657c-0.084-0.18-0.164-0.366-0.245-0.551
	c-0.113-0.255-0.224-0.515-0.332-0.781c-0.079-0.194-0.158-0.388-0.235-0.586c-2.44-6.359-3.816-15.836-5.001-28.578
	c-0.012-0.128-0.024-0.259-0.036-0.386c-0.727-7.878-1.413-15.319-3.125-21.069c-1.524-5.121-6.805-8.14-11.992-6.852l-13.925,3.455
	c-27.688,6.87-56.905,6.661-84.491-0.606l-12.228-3.222c-2.997-0.791-6.194-0.145-8.652,1.749c-2.456,1.894-3.896,4.819-3.896,7.921
	v9.846c0,0.504-0.005,1.01-0.012,1.517c-0.005,0.351-0.012,0.705-0.02,1.064c-0.002,0.074-0.003,0.147-0.005,0.221
	c-0.363,13.991-3.478,33.551-12.63,41.389l-3.867-55.212v-16.384H54.214z M69.15,232.869c18.052-13.287,21.218-42.511,21.563-57.957
	c3.72,0.974,7.467,1.827,11.233,2.571c0.124,0.025,0.247,0.054,0.371,0.079c0.604,0.118,1.212,0.214,1.817,0.326
	c26.683,4.948,54.308,4.175,80.697-2.373l3.545-0.879c0.273,2.441,0.516,5.078,0.765,7.773c0.091,0.989,0.185,1.994,0.28,3.004
	c0.016,0.169,0.032,0.337,0.048,0.506c0.041,0.433,0.083,0.866,0.126,1.302c0.021,0.222,0.044,0.444,0.066,0.666
	c0.134,1.35,0.277,2.711,0.431,4.08c0.032,0.287,0.065,0.573,0.098,0.86c0.042,0.362,0.086,0.725,0.13,1.087
	c0.038,0.313,0.077,0.627,0.117,0.941c0.044,0.346,0.088,0.691,0.134,1.037c0.053,0.395,0.108,0.791,0.163,1.186
	c0.05,0.358,0.101,0.716,0.153,1.075c0.079,0.538,0.161,1.077,0.246,1.614c0.039,0.248,0.081,0.495,0.122,0.743
	c0.074,0.449,0.15,0.898,0.228,1.347c0.04,0.229,0.081,0.459,0.123,0.688c0.098,0.539,0.2,1.077,0.306,1.614
	c0.025,0.125,0.048,0.25,0.073,0.374c0.286,1.428,0.604,2.844,0.953,4.243c0.006,0.025,0.013,0.049,0.019,0.074
	c2.343,9.346,6.209,17.889,13.151,23.643c-1.561,26.699-18.262,49.875-43.438,59.76c-4.696,1.844-7.284,6.897-6.034,11.786
	l6.37,24.911l-9.832,6.794c-0.001,0.001-0.002,0.001-0.003,0.002l-15.552,10.746l-15.552-10.746
	c-0.001-0.001-0.002-0.001-0.003-0.002l-9.832-6.794l6.37-24.912c1.25-4.888-1.338-9.941-6.034-11.785
	C87.508,282.414,70.846,259.409,69.15,232.869z M95.53,341.72l10.273,7.099l-8.558,79.803L84.35,341.72H95.53z M20,492V358.936
	c0-9.493,7.724-17.216,17.217-17.216h26.914L86.433,492H24.341H20z M102.165,461.766l28.298,28.973
	c0.462,0.473,0.966,0.893,1.503,1.261h-25.315L102.165,461.766z M143.268,492c0.537-0.368,1.042-0.789,1.503-1.261l28.298-28.973
	L168.583,492H143.268z M188.801,492l22.302-150.28h26.914c9.493,0,17.217,7.723,17.217,17.216V492H188.801z"/>

</svg>
