<?xml version="1.0" encoding="iso-8859-1"?>
<!-- Generator: Adobe Illustrator 19.0.0, SVG Export Plug-In . SVG Version: 6.00 Build 0)  -->
<svg version="1.1" id="Capa_1" xmlns="http://www.w3.org/2000/svg" xmlns:xlink="http://www.w3.org/1999/xlink" x="0px" y="0px"
	 viewBox="0 0 512 512" style="enable-background:new 0 0 512 512;" xml:space="preserve">
<g>
	<path style="fill:#F4AB38;" d="M107.886,271.477L107.886,271.477L107.886,271.477z M240.524,107.892L240.524,107.892
		L240.524,107.892z M25.475,107.892L25.475,107.892L25.475,107.892z M60.362,90.019c23.737,0,42.982,19.244,42.982,42.981
		c0,23.739-19.244,42.983-42.982,42.983c-14.921,0-28.065-7.607-35.772-19.15h-14.59V256h97.887l0.004,15.476
		c-10.825,7.804-17.873,20.522-17.873,34.886c0,23.739,19.244,42.983,42.983,42.983c23.736,0,42.98-19.244,42.98-42.983
		c0-14.921-7.607-28.064-19.148-35.771V256h99.166v-99.168h-14.59c-7.707,11.544-20.852,19.15-35.773,19.15
		c-23.736,0-42.981-19.244-42.981-42.983c0-23.737,19.245-42.981,42.981-42.981c14.365,0,27.081,7.048,34.888,17.869h15.475V10H10
		v40.981v56.907l15.475,0.004C33.282,97.067,45.998,90.019,60.362,90.019z"/>
	<path style="fill:#16A5A5;" d="M353.891,240.524L353.891,240.524L353.891,240.524z M353.891,25.476L353.891,25.476L353.891,25.476z
		 M240.524,107.888L240.524,107.888L240.524,107.888z M255.999,256h97.888l0.004-15.477c-10.825-7.805-17.873-20.52-17.873-34.886
		c0-23.737,19.244-42.982,42.982-42.982s42.982,19.245,42.982,42.982c0,14.921-7.606,28.066-19.148,35.772V256H502V10h-99.166
		v14.591c11.542,7.707,19.148,20.852,19.148,35.771c0,23.739-19.244,42.983-42.982,42.983c-23.737,0-42.982-19.245-42.982-42.983
		c0-14.363,7.048-27.081,17.869-34.885V10h-97.887v97.888h-15.475c-7.807-10.821-20.522-17.869-34.888-17.869
		c-23.736,0-42.981,19.244-42.981,42.981c0,23.739,19.245,42.983,42.981,42.983c14.921,0,28.066-7.607,35.773-19.15h14.59V256z"/>
	<path style="fill:#B941D6;" d="M271.475,404.108L271.475,404.108L271.475,404.108z M486.525,404.108L486.525,404.108
		L486.525,404.108z M353.887,240.524L353.887,240.524L353.887,240.524z M306.361,336.019c23.739,0,42.983,19.245,42.983,42.981
		c0,23.738-19.244,42.981-42.983,42.981c-14.363,0-27.081-7.048-34.886-17.867h-15.475V502h246v-97.886l-15.475-0.006
		c-7.807,10.826-20.522,17.874-34.888,17.874c-23.736,0-42.981-19.243-42.981-42.981c0-23.737,19.245-42.981,42.981-42.981
		c14.921,0,28.066,7.607,35.772,19.149H502V256h-99.166v-14.59c11.542-7.706,19.148-20.852,19.148-35.772
		c0-23.737-19.244-42.982-42.982-42.982c-23.737,0-42.982,19.245-42.982,42.982c0,14.365,7.048,27.081,17.869,34.886V256h-97.887
		v99.167h14.591C278.298,343.626,291.441,336.019,306.361,336.019z"/>
</g>
<path d="M502,0h-99.166c-5.523,0-10,4.477-10,10v14.591c0,3.341,1.668,6.461,4.446,8.316c9.206,6.147,14.702,16.41,14.702,27.454
	c0,18.187-14.796,32.983-32.982,32.983c-18.187,0-32.982-14.796-32.982-32.983c0-10.571,5.129-20.58,13.721-26.773
	c2.725-1.964,4.227-5.115,4.148-8.354V10c0-5.523-4.478-10-10-10h-97.887H10c-5.523,0-10,4.477-10,10v97.888c0,5.523,4.477,10,10,10
	h15.17c3.267,0.093,6.438-1.405,8.415-4.147c6.197-8.592,16.207-13.722,26.777-13.722c18.186,0,32.982,14.795,32.982,32.981
	c0,18.187-14.796,32.983-32.982,32.983c-11.045,0-21.309-5.497-27.456-14.703c-1.856-2.779-4.976-4.447-8.316-4.447h-14.59
	c-5.523,0-10,4.477-10,10V256c0,5.523,4.477,10,10,10h87.887v0.692c-11.273,9.999-17.869,24.472-17.869,39.67
	c0,29.215,23.768,52.983,52.983,52.983c29.213,0,52.98-23.768,52.98-52.983c0-15.665-6.878-30.349-18.659-40.362h78.677v89.167
	c0,5.523,4.476,10,10,10h14.591c3.341,0,6.461-1.668,8.316-4.447c6.147-9.206,16.41-14.702,27.454-14.702
	c18.188,0,32.983,14.795,32.983,32.981c0,18.186-14.796,32.981-32.983,32.981c-10.571,0-20.58-5.129-26.773-13.721
	c-1.975-2.739-5.146-4.255-8.405-4.146h-15.183c-5.524,0-10,4.477-10,10V502c0,5.523,4.476,10,10,10h246c5.522,0,10-4.477,10-10
	v-97.886c0-5.523-4.478-10-10-10h-15.099c-3.294-0.132-6.496,1.383-8.487,4.145c-6.196,8.593-16.206,13.723-26.776,13.723
	c-18.186,0-32.981-14.795-32.981-32.981c0-18.186,14.796-32.981,32.981-32.981c11.045,0,21.309,5.496,27.456,14.702
	c1.855,2.779,4.976,4.447,8.316,4.447H502c5.522,0,10-4.477,10-10V256V10C512,4.477,507.522,0,502,0z M266,107.888V20h77.888v0.692
	c-11.273,9.999-17.869,24.471-17.869,39.669c0,29.215,23.768,52.983,52.982,52.983c29.215,0,52.982-23.768,52.982-52.983
	c0-15.665-6.879-30.348-18.66-40.362h38.476v39.07c0,5.523,4.477,10,10,10s10-4.477,10-10V20H492v226.001h-78.676
	c11.781-10.013,18.658-24.696,18.658-40.362c0-29.214-23.768-52.982-52.982-52.982s-52.982,23.768-52.982,52.982
	c0,15.198,6.597,29.67,17.869,39.67v0.692H266v-89.168c0-5.523-4.478-10-10-10h-14.59c-3.342,0-6.462,1.669-8.317,4.447
	c-6.146,9.206-16.41,14.703-27.455,14.703c-18.186,0-32.981-14.796-32.981-32.983c0-18.186,14.795-32.981,32.981-32.981
	c10.57,0,20.58,5.13,26.776,13.722c1.965,2.725,5.129,4.24,8.353,4.147h15.233C261.522,117.888,266,113.411,266,107.888z
	 M151.281,278.908c9.205,6.146,14.701,16.41,14.701,27.454c0,18.187-14.795,32.983-32.98,32.983
	c-18.188,0-32.983-14.796-32.983-32.983c0-10.571,5.129-20.58,13.721-26.774c2.725-1.964,4.227-5.115,4.148-8.354V256
	c0-5.523-4.478-10-10-10H20v-78.677c10.014,11.782,24.696,18.659,40.362,18.659c29.214,0,52.982-23.768,52.982-52.983
	c0-29.214-23.768-52.981-52.982-52.981c-15.198,0-29.67,6.596-39.672,17.869h-0.69V60.981h39.068c5.523,0,10-4.477,10-10
	s-4.478-10-10-10H20V20h225.999v77.888h-0.692c-10.001-11.273-24.474-17.869-39.671-17.869c-29.214,0-52.981,23.767-52.981,52.981
	c0,29.215,23.768,52.983,52.981,52.983c15.666,0,30.349-6.877,40.362-18.659v78.677h-89.166c-5.523,0-10,4.477-10,10v14.591
	C146.833,273.933,148.501,277.053,151.281,278.908z M492,344.677c-10.014-11.782-24.696-18.658-40.362-18.658
	c-29.214,0-52.981,23.768-52.981,52.981c0,29.214,23.768,52.981,52.981,52.981c15.196,0,29.668-6.595,39.669-17.867H492v34.606
	h-39.068c-5.523,0-10,4.477-10,10s4.477,10,10,10H492V492H266v-77.886h0.693c9.999,11.272,24.471,17.867,39.668,17.867
	c29.215,0,52.983-23.767,52.983-52.981s-23.769-52.981-52.983-52.981c-15.664,0-30.348,6.878-40.361,18.66V266h87.888
	c5.522,0,10-4.477,10-10v-15.172c0.099-3.261-1.406-6.439-4.148-8.416c-8.592-6.194-13.721-16.203-13.721-26.774
	c0-18.186,14.795-32.982,32.982-32.982c18.186,0,32.982,14.795,32.982,32.982c0,11.045-5.496,21.309-14.701,27.456
	c-2.779,1.855-4.447,4.976-4.447,8.316V256c0,5.523,4.477,10,10,10H492V344.677z"/>
<path d="M87.273,40.981h-1.018c-5.523,0-10,4.477-10,10s4.477,10,10,10h1.018c5.522,0,10-4.477,10-10S92.796,40.981,87.273,40.981z"
	/>
<path d="M461.798,97.274c5.523,0,10-4.477,10-10v-1.017c0-5.523-4.477-10-10-10s-10,4.477-10,10v1.017
	C451.798,92.797,456.273,97.274,461.798,97.274z"/>
<path d="M424.727,468.72h1.017c5.523,0,10-4.477,10-10s-4.477-10-10-10h-1.017c-5.523,0-10,4.477-10,10
	S419.204,468.72,424.727,468.72z"/>
<g>
</g>
<g>
</g>
<g>
</g>
<g>
</g>
<g>
</g>
<g>
</g>
<g>
</g>
<g>
</g>
<g>
</g>
<g>
</g>
<g>
</g>
<g>
</g>
<g>
</g>
<g>
</g>
<g>
</g>
</svg>
