<?xml version="1.0" encoding="iso-8859-1"?>
<!-- Generator: Adobe Illustrator 19.0.0, SVG Export Plug-In . SVG Version: 6.00 Build 0)  -->
<svg version="1.1" id="Capa_1" xmlns="http://www.w3.org/2000/svg" xmlns:xlink="http://www.w3.org/1999/xlink" x="0px" y="0px"
	 viewBox="0 0 512.001 512.001" style="enable-background:new 0 0 512.001 512.001;" xml:space="preserve">
<path style="fill:#F3D1BB;" d="M91.503,122.645v115.09h-1.524c-16.079,0-29.113,13.034-29.113,29.113l0,0
	c0,16.079,13.034,29.113,29.113,29.113h1.557c1.425,58.019,48.903,104.615,107.265,104.615h21.089c0,3.504,0,6.376,0,6.386
	c0,9.679-0.123,9.398-9.366,10.699c-7.127,1.003-13.964,3.761-19.802,7.971c-11.552,8.332-18.541,21.963-18.541,36.208v42.66h135.62
	v-42.66c0-14.244-6.989-27.876-18.541-36.208c-5.837-4.21-12.674-6.968-19.802-7.971c-9.242-1.301-9.366-1.021-9.366-10.699
	c0-0.01,0-2.883,0-6.386h21.387c59.259,0,107.298-48.039,107.298-107.298V122.645H91.503z"/>
<path style="fill:#ECC19C;" d="M390.508,237.734h-1.725v-115.09h-42.419v170.629c0,59.266-48.03,107.296-107.296,107.296h42.419
	c58.355,0,105.837-46.586,107.262-104.61h1.759c8.448,0,16.056-3.599,21.374-9.346c4.803-5.191,7.739-12.136,7.739-19.766l0,0
	C419.621,250.769,406.586,237.734,390.508,237.734z"/>
<path style="fill:#F2B844;" d="M97.541,241.564c7.939-8.792,33.259-38.502,38.22-64.93c0.487-2.595,3.323-3.988,5.629-2.701
	c6.014,3.356,18.102,8.643,38.999,12.244c2.66,0.459,4.963-1.874,4.44-4.522l-3.305-16.737c-0.617-3.124,2.613-5.602,5.464-4.184
	c20.354,10.124,81.279,38.318,131.577,39.955c3.543,0.115,5.291-4.28,2.675-6.672l-12.687-11.602
	c-3.03-2.771-0.179-7.723,3.739-6.494l73.832,23.163c2.472,0.776,4.986-1.071,4.986-3.662v-33.289c0-2.538,2.416-4.382,4.86-3.699
	c12.056,3.37,43.938,13.46,65.795,31.168c3.039,2.462,7.378-0.697,5.98-4.35c-8.948-23.386-29.489-67.132-63.42-86.008
	c-2.058-1.145-2.638-3.843-1.185-5.696c3.95-5.039,13.68-14.47,36.025-24.457c3.365-1.504,2.883-6.434-0.712-7.243
	c-18.28-4.11-55.461-10.128-85.988-0.11c-3.098,1.017-5.955-2.065-4.731-5.087c3.26-8.048,8.994-20.774,16.543-31.847
	c2.189-3.212-1.271-7.258-4.796-5.621c-12.379,5.749-30.287,15.215-43.371,26.962c-1.919,1.723-4.969,1.039-6.026-1.312
	L297.882,17.71c-1.047-2.326-4.029-3.003-5.977-1.356l-31.424,26.56c-1.296,1.096-3.153,1.209-4.575,0.283
	c-8.911-5.807-42.388-26.051-89.53-35.616c-3.439-0.698-5.936,3.216-3.857,6.042l25.313,34.4c1.861,2.529,0.072,6.104-3.068,6.113
	c-15.243,0.044-50.696-2.802-72.723-28.19c-1.43-1.648-3.89-1.792-5.501-0.32c-6.999,6.395-23.471,24.9-24.9,58.424
	c-0.06,1.412-0.852,2.701-2.12,3.325c-7.205,3.54-31.219,18.437-35.519,61.246c-0.295,2.934,2.664,5.106,5.364,3.922
	c7.117-3.12,19.859-7.862,33.395-8.848c3.09-0.225,5.17,3.095,3.606,5.77c-9.542,16.321-31.579,62.788,5.941,92.535
	C93.892,243.256,96.185,243.064,97.541,241.564z"/>
<path style="fill:#E59E2C;" d="M461.071,189.045c-21.639-17.208-52.617-27.104-64.782-30.516c-2.052-0.584-4.091,0.517-4.866,2.338
	c-10.983-18.867-26.125-38.223-45.78-49.26c-2.216-1.237-2.787-4.146-1.196-6.117c4.051-5.056,13.674-14.191,35.137-23.869
	c3.575-1.618,3.045-6.851-0.788-7.707c-18.432-4.078-54.738-9.773-84.764-0.109c-3.303,1.06-6.348-2.188-5.029-5.396
	c3.208-7.897,8.699-19.981,15.863-30.665c0.693-1.033,0.843-2.134,0.612-3.14l4.472,9.923c1.128,2.501,4.35,3.221,6.402,1.4
	c12.791-11.404,30.08-20.634,42.341-26.383c3.752-1.753,7.408,2.542,5.097,5.967c-7.163,10.684-12.641,22.768-15.863,30.665
	c-1.305,3.208,1.726,6.457,5.029,5.396c30.026-9.664,66.332-3.969,84.764,0.109c3.833,0.856,4.363,6.089,0.788,7.707
	c-21.449,9.678-31.087,18.812-35.137,23.869c-1.59,1.971-1.019,4.88,1.196,6.117c33.384,18.731,53.745,61.493,62.853,85.009
	C468.914,188.284,464.347,191.641,461.071,189.045z"/>
<path style="fill:#59BD85;" d="M307.799,461.842V504.5H172.186v-42.659c0-14.248,6.983-27.878,18.533-36.206
	c3.73-2.69,7.867-4.786,12.23-6.209c2.463-0.805,5.005-1.4,7.578-1.767c3.769-0.532,6.021-0.79,7.366-1.58l1.728,0.383l4.356,2.463
	c9.845,5.583,21.88,5.623,31.765,0.109l4.622-2.573l1.728-0.383c1.345,0.79,3.597,1.048,7.366,1.58
	c2.573,0.367,5.114,0.962,7.578,1.767c4.363,1.423,8.5,3.519,12.23,6.209C300.816,433.964,307.799,447.594,307.799,461.842z"/>
<g>
	<circle style="fill:#E8979F;" cx="153.341" cy="322.34" r="15.986"/>
	<circle style="fill:#E8979F;" cx="326.941" cy="322.34" r="15.986"/>
</g>
<path d="M245.638,370.675c-2.805,0-5.495-1.581-6.778-4.282c-1.778-3.741-0.187-8.215,3.554-9.993l17.841-8.479
	c3.741-1.777,8.216-0.186,9.993,3.553c1.778,3.741,0.187,8.215-3.554,9.993l-17.841,8.479
	C247.813,370.441,246.717,370.675,245.638,370.675z"/>
<path d="M240.141,341.756c-9.452,0-17.936-5.625-21.617-14.329c-1.612-3.815,0.173-8.215,3.987-9.829
	c3.811-1.609,8.215,0.172,9.829,3.987c1.328,3.141,4.39,5.172,7.801,5.172c3.244,0,6.246-1.893,7.646-4.824
	c1.786-3.737,6.263-5.318,10-3.532s5.318,6.263,3.532,10C257.443,336.514,249.129,341.756,240.141,341.756z"/>
<path d="M197.131,301.582c-4.142,0-7.5-3.357-7.5-7.5v-22.934c0-4.142,3.357-7.5,7.5-7.5s7.5,3.357,7.5,7.5v22.934
	C204.63,298.225,201.273,301.582,197.131,301.582z"/>
<path d="M283.151,301.582c-4.142,0-7.5-3.357-7.5-7.5v-22.934c0-4.142,3.357-7.5,7.5-7.5c4.142,0,7.5,3.357,7.5,7.5v22.934
	C290.651,298.225,287.294,301.582,283.151,301.582z"/>
<g>
	<path style="fill:#E59E2C;" d="M210.203,243.15H180.19c-4.142,0-7.5-3.357-7.5-7.5c0-4.142,3.357-7.5,7.5-7.5h30.013
		c4.142,0,7.5,3.357,7.5,7.5S214.346,243.15,210.203,243.15z"/>
	<path style="fill:#E59E2C;" d="M300.092,243.15h-30.013c-4.142,0-7.5-3.357-7.5-7.5c0-4.142,3.357-7.5,7.5-7.5h30.013
		c4.142,0,7.5,3.357,7.5,7.5C307.591,239.793,304.234,243.15,300.092,243.15z"/>
</g>
<path d="M474.75,182.572c-3.493-9.129-9.385-22.996-17.619-37.216c-2.076-3.586-6.664-4.809-10.248-2.732
	c-3.585,2.075-4.808,6.664-2.732,10.247c4.74,8.187,8.662,16.267,11.746,23.28c-21.399-13.783-46.822-21.843-57.91-24.942
	c-3.438-0.96-7.047-0.275-9.892,1.888c-2.85,2.163-4.485,5.457-4.485,9.036v28.303l-69.075-21.672
	c-5.111-1.601-10.546,0.52-13.219,5.163c-2.672,4.641-1.776,10.408,2.176,14.021l4.967,4.543
	c-47.271-4.772-101.688-30.292-118.13-38.47c-3.893-1.937-8.46-1.502-11.917,1.137c-3.462,2.642-5.089,6.938-4.245,11.214
	l2.259,11.441c-17.104-3.434-26.89-7.921-31.383-10.429c-3.164-1.764-7.011-1.901-10.289-0.365c-3.307,1.55-5.686,4.628-6.363,8.233
	c-4.196,22.352-24.831,48.043-34.056,58.627c-11.226-10.291-28.011-35.268-1.495-80.625c2.133-3.644,2.07-8.134-0.161-11.717
	c-2.235-3.588-6.236-5.614-10.462-5.319c-11.217,0.817-21.804,3.926-29.969,7.045c5.37-34.198,24.557-46.195,30.58-49.154
	c3.711-1.822,6.126-5.552,6.306-9.737c1.151-27.004,12.778-43.209,19.858-50.646c10.235,10.65,23.633,18.4,39.887,23.064
	c14.123,4.052,27.305,4.84,35.906,4.848c4.289-0.012,8.153-2.399,10.082-6.229c1.932-3.837,1.551-8.37-0.995-11.828L174.34,17.038
	c40.682,9.848,69.253,27.09,77.47,32.445c4.229,2.756,9.659,2.419,13.513-0.838l27.711-23.426l10.208,22.691
	c1.48,3.293,4.475,5.705,8.009,6.452c3.513,0.743,7.201-0.243,9.867-2.635c8.823-7.921,20.079-14.809,30.217-20.151
	c-4.521,8.14-8.087,16.17-10.554,22.261c-1.677,4.14-0.824,8.74,2.225,12.002c3.042,3.256,7.557,4.416,11.796,3.026
	c11.204-3.678,34.704-8.434,71.404-1.845c-16.226,8.469-24.652,16.394-28.968,21.9c-2.04,2.6-2.835,5.951-2.181,9.193
	c0.658,3.263,2.707,6.064,5.621,7.685c4.151,2.31,8.286,5.154,12.286,8.452c3.196,2.636,7.923,2.18,10.557-1.017
	c2.635-3.196,2.179-7.922-1.017-10.557c-3.457-2.85-7.016-5.421-10.625-7.676c4.661-4.669,13.624-11.589,30.344-19.062
	c4.467-1.997,7.141-6.611,6.655-11.481c-0.486-4.865-4.015-8.853-8.783-9.925c-18.342-4.125-52.202-9.492-82.426-2.073
	c3.243-7.235,7.578-15.769,12.801-23.43c2.902-4.259,2.612-9.762-0.724-13.694c-3.346-3.944-8.74-5.132-13.429-2.953
	c-11.89,5.521-28.237,14.145-41.404,24.916l-10.196-22.663c-1.474-3.276-4.327-5.611-7.831-6.406
	c-3.501-0.795-7.087,0.079-9.829,2.398l-29.356,24.818c-11.92-7.471-44.872-26.092-89.835-35.215
	c-4.628-0.936-9.265,1.029-11.808,5.013c-2.545,3.984-2.38,9.017,0.42,12.823l20.862,28.352
	c-15.903-0.961-42.548-5.695-59.634-25.389c-2.024-2.334-4.835-3.717-7.914-3.895c-3.065-0.173-6.029,0.87-8.31,2.954
	c-7.556,6.904-25.102,26.557-27.228,61.58c-9.804,5.433-33.361,22.86-37.715,66.202c-0.402,4.005,1.367,7.961,4.619,10.327
	c3.293,2.396,7.484,2.851,11.219,1.215c4.991-2.188,14.003-5.678,24.037-7.388c-4.741,9.227-10.449,22.908-12.176,37.812
	c-1.932,16.686,1.533,31.583,10.073,43.939c-12.369,5.882-20.944,18.49-20.944,33.073c0,18.299,13.495,33.507,31.055,36.192
	c4.97,58.747,54.367,105.036,114.378,105.036h13.589c-0.002,0.588-0.006,1.19-0.017,1.747c-0.66,0.1-1.39,0.202-2.083,0.299
	l-0.811,0.113c-8.316,1.171-16.318,4.393-23.142,9.316c-13.559,9.779-21.654,25.588-21.654,42.29v42.661
	c0,4.142,3.357,7.499,7.5,7.499h41.485c4.142,0,7.5-3.357,7.5-7.499s-3.357-7.5-7.5-7.5h-1.043V424.94
	c1.863-0.26,3.584-0.509,5.158-0.895c3.826,2.016,12.093,5.579,22.761,5.579c6.666,0,14.268-1.4,22.298-5.434
	c1.398,0.305,2.905,0.523,4.52,0.749v72.062h-1.03c-4.142,0-7.5,3.357-7.5,7.5s3.357,7.499,7.5,7.499h41.471
	c4.142,0,7.5-3.357,7.5-7.499V461.84c0-16.701-8.094-32.51-21.652-42.29c-6.826-4.924-14.829-8.145-23.144-9.316l-0.81-0.113
	c-0.692-0.097-1.423-0.199-2.083-0.299c-0.011-0.557-0.015-1.159-0.017-1.747h13.885c60.005,0,109.397-46.28,114.376-105.018
	c8.198-1.22,15.842-5.203,21.529-11.35c6.277-6.784,9.734-15.612,9.734-24.86c0-18.225-13.386-33.377-30.842-36.153v-63.681
	c14.048,4.254,42.414,13.546,60.765,28.414c4.034,3.27,9.571,3.415,13.774,0.366C475.027,192.74,476.607,187.427,474.75,182.572z
	 M84.003,287.613c-9.019-2.6-15.637-10.921-15.637-20.766c0-9.844,6.618-18.165,15.637-20.765V287.613z M197.625,497.001h-17.943
	V461.84c0-11.896,5.767-23.157,15.429-30.125c0.813-0.587,1.657-1.126,2.515-1.643v66.929H197.625z M282.36,430.072
	c0.857,0.518,1.701,1.057,2.514,1.644c9.661,6.967,15.428,18.229,15.428,30.124v35.161H282.36L282.36,430.072L282.36,430.072z
	 M252.713,412.278c-11.085,4.252-20.526,1.738-25.422-0.304c0.076-1.212,0.094-2.504,0.097-3.899h25.208
	C252.6,409.587,252.62,410.979,252.713,412.278z M381.28,293.278c0,55.029-44.769,99.798-99.798,99.798h-82.681
	c-53.702,0-97.625-42.638-99.712-95.838c0.071-0.416,0.117-47.851,0.117-47.851c1.448-0.625,2.784-1.56,3.902-2.797
	c26.683-29.556,35.827-52.292,38.945-63.89c7.572,3.594,19.427,7.829,37.061,10.868c3.688,0.636,7.451-0.581,10.065-3.257
	c2.605-2.669,3.73-6.447,3.008-10.109l-1.874-9.494c66.886,32.166,111.57,36.941,128.008,37.476
	c4.788,0.145,9.024-2.607,10.829-7.04c1.813-4.453,0.695-9.423-2.848-12.662l-0.51-0.468l55.489,17.409v87.855H381.28z
	 M396.282,246.017c9.123,2.533,15.839,10.912,15.839,20.83c0,5.459-2.04,10.67-5.744,14.673c0,0,0,0-0.001,0.001
	c-2.791,3.016-6.261,5.12-10.094,6.171V246.017z"/>
<g>
</g>
<g>
</g>
<g>
</g>
<g>
</g>
<g>
</g>
<g>
</g>
<g>
</g>
<g>
</g>
<g>
</g>
<g>
</g>
<g>
</g>
<g>
</g>
<g>
</g>
<g>
</g>
<g>
</g>
</svg>
