<?xml version="1.0" encoding="iso-8859-1"?>
<!-- Generator: Adobe Illustrator 19.0.0, SVG Export Plug-In . SVG Version: 6.00 Build 0)  -->
<svg version="1.1" id="Capa_1" xmlns="http://www.w3.org/2000/svg" xmlns:xlink="http://www.w3.org/1999/xlink" x="0px" y="0px"
	 viewBox="0 0 512 512" style="enable-background:new 0 0 512 512;" xml:space="preserve">
<path d="M10,494.385c-0.65,0-1.31-0.06-1.95-0.19s-1.27-0.32-1.88-0.57c-0.6-0.25-1.18-0.56-1.72-0.92
	c-0.55-0.37-1.06-0.79-1.52-1.25s-0.88-0.97-1.24-1.52c-0.36-0.54-0.67-1.12-0.92-1.72c-0.25-0.61-0.45-1.24-0.57-1.87
	c-0.13-0.65-0.2-1.31-0.2-1.96s0.07-1.31,0.2-1.95c0.12-0.64,0.32-1.27,0.57-1.87c0.25-0.61,0.56-1.19,0.92-1.73
	c0.36-0.55,0.78-1.06,1.24-1.52s0.97-0.88,1.52-1.24c0.54-0.36,1.12-0.67,1.72-0.92c0.61-0.25,1.24-0.44,1.88-0.57
	c1.29-0.26,2.61-0.26,3.9,0c0.64,0.13,1.27,0.32,1.87,0.57c0.61,0.25,1.19,0.56,1.73,0.92c0.55,0.36,1.06,0.78,1.52,1.24
	c0.46,0.46,0.88,0.97,1.24,1.52c0.36,0.54,0.67,1.12,0.92,1.73c0.25,0.6,0.45,1.23,0.57,1.87c0.13,0.64,0.2,1.3,0.2,1.95
	c0,0.65-0.07,1.31-0.2,1.96c-0.12,0.63-0.32,1.26-0.57,1.87c-0.25,0.6-0.56,1.18-0.92,1.72c-0.36,0.55-0.78,1.06-1.24,1.52
	s-0.97,0.88-1.52,1.25c-0.54,0.36-1.12,0.67-1.73,0.92c-0.6,0.25-1.23,0.44-1.87,0.57C11.31,494.325,10.65,494.385,10,494.385z"/>
<path style="fill:#4B596E;" d="M300.405,383.59c0-31.964,14.882-60.448,38.09-78.915c-4.821-3.409-10.702-5.419-17.057-5.419
	h-69.522l0.374,1.454l-40.009,27.646l-40.01-27.646l0.374-1.454h-69.522c-16.334,0-29.59,13.257-29.59,29.59v155.541h277.495
	v-13.355C320.776,453.636,300.405,420.992,300.405,383.59z"/>
<circle style="fill:#68C5AF;" cx="401.2" cy="383.589" r="100.8"/>
<polygon style="fill:#F9E2A1;" points="464.075,361.498 423.295,361.498 423.295,320.718 379.111,320.718 379.111,361.498 
	338.331,361.498 338.331,405.682 379.111,405.682 379.111,446.462 423.295,446.462 423.295,405.682 464.075,405.682 "/>
<path d="M423.295,456.462h-44.184c-5.523,0-10-4.477-10-10v-30.78h-30.78c-5.523,0-10-4.477-10-10v-44.184c0-5.523,4.477-10,10-10
	h30.78v-30.78c0-5.523,4.477-10,10-10h44.184c5.523,0,10,4.477,10,10v30.78h30.78c5.523,0,10,4.477,10,10v44.184
	c0,5.523-4.477,10-10,10h-30.78v30.78C433.295,451.985,428.818,456.462,423.295,456.462z M389.111,436.462h24.184v-30.78
	c0-5.523,4.477-10,10-10h30.78v-24.184h-30.78c-5.523,0-10-4.477-10-10v-30.78h-24.184v30.78c0,5.523-4.477,10-10,10h-30.78v24.184
	h30.78c5.523,0,10,4.477,10,10V436.462z"/>
<path style="fill:#DC9E5E;" d="M313.83,104.158v-4.86c0-0.819-0.014-1.648-0.041-2.488c-1.358-41.538-38.339-72.9-79.702-68.856
	c0,0-57.295,7.107-93.266,9.119c-22.375,1.251-30.09,34.389-30.09,58.509v8.576v9.616l5.201,74.268
	c26.836,0,34.519-35.828,34.519-62.664v-10.704l13.294,3.502c31.844,8.39,65.288,8.63,97.249,0.698l15.139-3.757
	c5.975,20.07-0.887,72.925,32.496,72.925L313.83,104.158L313.83,104.158z"/>
<path style="fill:#F9E2A1;" d="M276.133,115.117l-15.139,3.757c-31.961,7.932-65.405,7.692-97.249-0.698l-13.294-3.502v10.704
	c0,22.783-5.544,52.033-23.636,60.354v1.174c0,36.183,22.497,67.091,54.257,79.56l-8.801,34.244l40.01,27.646l40.009-27.646
	l-8.801-34.244c31.76-12.469,54.257-43.378,54.257-79.56v-1.252C276.786,175.134,281.349,132.636,276.133,115.117z"/>
<polygon style="fill:#BEE6F2;" points="252.29,300.71 212.281,328.356 172.271,300.71 172.645,299.256 141.092,299.256 
	169.237,484.387 255.325,484.387 282.129,299.256 251.916,299.256 "/>
<polygon style="fill:#3C95B1;" points="212.281,328.356 189.209,312.414 176.792,428.213 212.281,464.547 247.769,428.213 
	235.352,312.414 "/>
<path d="M401.203,272.793c-23.567,0-45.435,7.402-63.413,19.995c-5.102-2.323-10.647-3.532-16.351-3.532h-39.31h-22.457
	l-4.399-17.115c14.167-7.14,26.315-17.683,35.468-30.856c9.002-12.956,14.567-27.741,16.364-43.275
	c0.515,0.02,1.025,0.032,1.524,0.032c5.283,0,9.654-4.109,9.981-9.381l5.202-83.884c0.013-0.206,0.019-0.413,0.019-0.619v-4.86
	c0-0.926-0.016-1.864-0.047-2.814c-0.736-22.523-10.559-43.192-27.657-58.198c-17.23-15.121-40.194-22.514-63.012-20.284
	c-0.086,0.008-0.172,0.018-0.258,0.029c-0.57,0.071-57.378,7.089-92.594,9.059c-9.827,0.55-23.377,5.654-32.121,26.85
	c-4.71,11.416-7.411,26.594-7.411,41.643v18.192c0,0.233,0.008,0.466,0.024,0.699l5.202,74.268c0.367,5.239,4.724,9.301,9.976,9.301
	c0.517,0,1.015-0.035,1.522-0.054c1.795,15.542,7.361,30.334,16.368,43.297c9.152,13.173,21.3,23.716,35.467,30.855l-4.398,17.116
	h-23.798h-37.968c-21.83,0-39.59,17.76-39.59,39.59v145.541H47.334c-5.523,0-10,4.477-10,10s4.477,10,10,10h26.199h95.704h86.088
	h95.704h50.174c61.094,0,110.797-49.704,110.797-110.797C512,322.496,462.296,272.793,401.203,272.793z M255.923,410.465
	l-9.994-93.205l11.584-8.005h13.063L255.923,410.465z M227.202,330.201l10.122,94.394l-25.043,25.641l-25.043-25.641l10.121-94.395
	l9.237,6.383c1.71,1.182,3.697,1.773,5.685,1.773c1.987,0,3.974-0.591,5.684-1.773L227.202,330.201z M120.731,95.582
	c0-22.963,7.237-47.774,20.649-48.524c35.381-1.979,89.992-8.691,93.805-9.163c17.293-1.654,34.691,3.961,47.749,15.422
	c12.898,11.32,20.307,26.882,20.86,43.819c0.023,0.729,0.036,1.45,0.036,2.162v4.551l-4.389,70.772
	c-0.719-0.682-1.382-1.476-2.003-2.365c-0.145-0.214-0.287-0.435-0.427-0.659c-0.07-0.11-0.139-0.223-0.208-0.335
	c-1.16-1.935-2.131-4.221-2.954-6.737c-2.225-6.96-3.573-16.65-4.738-29.203c-0.01-0.106-0.02-0.214-0.03-0.32
	c-0.786-8.521-1.528-16.57-3.365-22.739c-1.144-3.841-4.402-6.498-8.147-7.044c-1.248-0.182-2.55-0.13-3.846,0.192l-15.139,3.757
	c-30.244,7.505-62.158,7.276-92.293-0.662l-13.295-3.502c-2.997-0.791-6.194-0.144-8.652,1.749
	c-2.457,1.894-3.896,4.819-3.896,7.921v10.704c0,0.562-0.006,1.127-0.014,1.692c-0.006,0.431-0.015,0.867-0.026,1.309
	c-0.001,0.051-0.002,0.102-0.004,0.153c-0.431,16.01-4.187,38.58-15.357,46.569l-4.32-61.676V95.582H120.731z M136.95,191.451
	c2.849-2.063,5.403-4.556,7.682-7.402c0.32-0.392,0.634-0.789,0.942-1.192c0.051-0.069,0.103-0.137,0.154-0.206
	c8.294-11.023,11.999-25.997,13.591-38.773c0.014-0.107,0.026-0.214,0.039-0.32c0.102-0.832,0.195-1.654,0.28-2.465
	c0.04-0.376,0.077-0.752,0.114-1.129c0.062-0.64,0.119-1.272,0.171-1.896c0.041-0.488,0.079-0.975,0.115-1.463
	c0.033-0.452,0.062-0.893,0.09-1.333c0.044-0.689,0.085-1.377,0.12-2.067c0.027-0.523,0.05-1.034,0.071-1.537
	c0.019-0.46,0.036-0.92,0.051-1.381c0.027-0.841,0.048-1.655,0.06-2.428c0.001-0.071,0.004-0.142,0.005-0.213l0.763,0.201
	c33.37,8.791,68.712,9.045,102.205,0.733l4.816-1.195c0.345,2.935,0.642,6.156,0.946,9.456c0.321,3.477,0.656,7.087,1.073,10.735
	c0.017,0.149,0.034,0.298,0.051,0.447c0.056,0.484,0.115,0.969,0.174,1.455c0.027,0.222,0.055,0.445,0.083,0.667
	c0.059,0.473,0.12,0.945,0.183,1.418c0.029,0.218,0.06,0.435,0.09,0.653c0.121,0.882,0.248,1.763,0.383,2.644
	c0.035,0.228,0.068,0.456,0.104,0.683c0.062,0.394,0.128,0.786,0.194,1.178c0.056,0.334,0.111,0.667,0.169,1
	c0.064,0.369,0.13,0.737,0.198,1.104c0.07,0.385,0.144,0.769,0.218,1.152c0.062,0.321,0.123,0.641,0.188,0.961
	c0.138,0.681,0.28,1.36,0.431,2.036c0.023,0.102,0.047,0.203,0.071,0.305c0.144,0.637,0.294,1.271,0.451,1.902
	c0.044,0.176,0.089,0.35,0.134,0.525c0.149,0.587,0.304,1.17,0.465,1.75c0.036,0.13,0.072,0.261,0.109,0.391
	c2.6,9.206,6.724,17.495,13.707,23.128c-1.554,29.557-19.97,55.254-47.804,66.183c-4.701,1.845-7.288,6.906-6.031,11.797
	l7.065,27.491L212.282,316.2l-28.589-19.754l7.065-27.492c1.257-4.891-1.33-9.952-6.031-11.797
	C157.042,246.288,138.677,220.806,136.95,191.451z M167.048,309.256l11.584,8.004l-10.211,95.229l-15.694-103.233H167.048z
	 M83.533,328.846c0-10.802,8.788-19.59,19.59-19.59h29.374l25.104,165.131H83.533V328.846z M172.286,437.91l32.841,33.624
	c1.474,1.51,3.379,2.494,5.429,2.853h-32.725L172.286,437.91z M214.005,474.387c2.05-0.359,3.955-1.343,5.429-2.853l32.458-33.232
	l-5.225,36.085H214.005z M266.877,474.387l23.908-165.131h28.237c-15.208,16.755-24.85,37.659-27.714,60.165
	c-0.007,0.052-0.013,0.103-0.02,0.155c-0.101,0.806-0.194,1.613-0.278,2.423c-0.017,0.158-0.034,0.317-0.049,0.476
	c-0.07,0.71-0.133,1.422-0.19,2.134c-0.019,0.231-0.039,0.462-0.056,0.693c-0.049,0.658-0.089,1.318-0.126,1.979
	c-0.015,0.267-0.033,0.534-0.046,0.802c-0.032,0.662-0.055,1.326-0.076,1.99c-0.008,0.257-0.02,0.513-0.027,0.77
	c-0.022,0.914-0.035,1.83-0.035,2.747c0,1.069,0.019,2.134,0.049,3.196c0.007,0.247,0.019,0.493,0.028,0.739
	c0.03,0.86,0.069,1.718,0.119,2.573c0.012,0.196,0.025,0.392,0.037,0.587c0.064,0.999,0.14,1.994,0.23,2.985
	c0.002,0.022,0.004,0.044,0.006,0.067c1.858,20.366,9.249,39.155,20.657,54.849c0.137,0.189,0.274,0.377,0.412,0.565
	c0.393,0.533,0.791,1.062,1.193,1.588c0.29,0.382,0.58,0.763,0.876,1.141c0.1,0.127,0.202,0.252,0.303,0.379
	c6.62,8.394,14.467,15.877,23.379,22.127L266.877,474.387L266.877,474.387z M401.203,474.387c-28.654,0-54.246-13.346-70.899-34.143
	c-0.255-0.32-0.511-0.638-0.762-0.961c-0.207-0.266-0.412-0.535-0.616-0.804c-10.582-13.961-17.075-30.862-18.305-48.687
	c-0.009-0.131-0.017-0.263-0.025-0.395c-0.051-0.785-0.089-1.572-0.119-2.361c-0.008-0.219-0.018-0.437-0.025-0.656
	c-0.029-0.928-0.047-1.859-0.047-2.791c0-0.825,0.013-1.649,0.035-2.47c0.008-0.306,0.024-0.61,0.035-0.916
	c0.019-0.508,0.037-1.016,0.064-1.522c0.021-0.396,0.049-0.79,0.075-1.184c0.027-0.402,0.053-0.803,0.085-1.204
	c0.037-0.466,0.08-0.931,0.124-1.395c0.029-0.31,0.059-0.619,0.092-0.928c0.057-0.54,0.119-1.079,0.185-1.617
	c0.025-0.204,0.051-0.407,0.078-0.61c0.083-0.636,0.17-1.27,0.267-1.901c0.008-0.051,0.016-0.102,0.024-0.154
	c6.711-43.491,44.394-76.896,89.734-76.896c50.066,0,90.797,40.731,90.797,90.797S451.269,474.387,401.203,474.387z"/>
<g>
</g>
<g>
</g>
<g>
</g>
<g>
</g>
<g>
</g>
<g>
</g>
<g>
</g>
<g>
</g>
<g>
</g>
<g>
</g>
<g>
</g>
<g>
</g>
<g>
</g>
<g>
</g>
<g>
</g>
</svg>
