<?xml version="1.0" encoding="iso-8859-1"?>
<!-- Generator: Adobe Illustrator 19.0.0, SVG Export Plug-In . SVG Version: 6.00 Build 0)  -->
<svg version="1.1" id="Capa_1" xmlns="http://www.w3.org/2000/svg" xmlns:xlink="http://www.w3.org/1999/xlink" x="0px" y="0px"
	 viewBox="0 0 512 512" style="enable-background:new 0 0 512 512;" xml:space="preserve">
<circle style="fill:#F8E188;" cx="390.77" cy="88.19" r="30.889"/>
<path d="M390.771,129.085c-22.546,0-40.889-18.343-40.889-40.889s18.343-40.889,40.889-40.889c22.546,0,40.889,18.343,40.889,40.889
	S413.317,129.085,390.771,129.085z M390.771,67.306c-11.519,0-20.889,9.371-20.889,20.889c0,11.519,9.371,20.889,20.889,20.889
	c11.519,0,20.889-9.371,20.889-20.889S402.29,67.306,390.771,67.306z"/>
<circle style="fill:#F8E188;" cx="369.11" cy="180.56" r="21.657"/>
<path d="M369.113,212.218c-17.456,0-31.657-14.201-31.657-31.657s14.201-31.658,31.657-31.658c17.456,0,31.658,14.202,31.658,31.658
	S386.569,212.218,369.113,212.218z M369.113,168.903c-6.428,0-11.657,5.23-11.657,11.658c0,6.428,5.229,11.657,11.657,11.657
	s11.658-5.229,11.658-11.657C380.771,174.133,375.542,168.903,369.113,168.903z"/>
<circle style="fill:#F8E188;" cx="314.96" cy="33.26" r="23.264"/>
<path d="M314.96,66.528c-18.342,0-33.264-14.922-33.264-33.264S296.619,0,314.96,0c18.342,0,33.264,14.922,33.264,33.264
	S333.302,66.528,314.96,66.528z M314.96,20c-7.313,0-13.264,5.95-13.264,13.264s5.95,13.264,13.264,13.264
	s13.264-5.95,13.264-13.264C328.225,25.95,322.274,20,314.96,20z"/>
<path style="fill:#B4F5FF;" d="M307.645,183.298v-47.939h-103.29v47.939L92.338,461.132C84.752,480.825,99.287,502,120.391,502
	H391.61c21.103,0,35.638-21.175,28.053-40.868L307.645,183.298z"/>
<rect x="185.46" y="88.16" style="fill:#8ABCFF;" width="141.08" height="47.2"/>
<polygon style="fill:#F8E188;" points="291.236,239.001 220.764,239.001 201.755,288.352 310.245,288.352 "/>
<polygon style="fill:#FFA25D;" points="201.755,288.352 134.868,462 377.132,462 310.245,288.352 "/>
<circle style="fill:#F8E188;" cx="237.88" cy="351.88" r="17.12"/>
<path d="M237.877,379c-14.955,0-27.123-12.167-27.123-27.123s12.168-27.122,27.123-27.122c14.956,0,27.123,12.167,27.123,27.122
	C265,366.833,252.833,379,237.877,379z M237.877,344.755c-3.928,0-7.123,3.195-7.123,7.122s3.195,7.123,7.123,7.123
	c3.927,0,7.123-3.195,7.123-7.123C245,347.95,241.805,344.755,237.877,344.755z"/>
<circle style="fill:#F8E188;" cx="293.12" cy="381.88" r="17.12"/>
<path d="M293.123,409C278.167,409,266,396.833,266,381.877s12.167-27.122,27.123-27.122s27.123,12.167,27.123,27.122
	C320.246,396.833,308.078,409,293.123,409z M293.123,374.755c-3.927,0-7.123,3.195-7.123,7.122s3.195,7.123,7.123,7.123
	c3.928,0,7.123-3.195,7.123-7.123C300.246,377.95,297.05,374.755,293.123,374.755z"/>
<path d="M322.15,438c-0.65,0-1.3-0.06-1.95-0.19c-0.64-0.13-1.27-0.33-1.87-0.58s-1.18-0.56-1.73-0.92
	c-0.54-0.36-1.06-0.78-1.52-1.24c-0.461-0.46-0.88-0.97-1.24-1.52c-0.36-0.54-0.67-1.12-0.92-1.73c-0.25-0.6-0.44-1.23-0.57-1.87
	c-0.13-0.64-0.2-1.3-0.2-1.95c0-0.65,0.07-1.31,0.2-1.95s0.32-1.27,0.57-1.87c0.25-0.61,0.56-1.19,0.92-1.73
	c0.36-0.55,0.78-1.06,1.24-1.52s0.98-0.88,1.52-1.24c0.55-0.36,1.13-0.67,1.73-0.92s1.23-0.44,1.87-0.57c1.29-0.26,2.62-0.26,3.91,0
	c0.64,0.13,1.27,0.32,1.87,0.57s1.18,0.56,1.73,0.92c0.54,0.36,1.05,0.78,1.52,1.24c0.46,0.46,0.87,0.97,1.24,1.52
	c0.36,0.54,0.67,1.12,0.92,1.73c0.25,0.6,0.441,1.23,0.57,1.87c0.13,0.64,0.19,1.3,0.19,1.95c0,0.65-0.06,1.31-0.19,1.95
	s-0.32,1.27-0.57,1.87c-0.25,0.61-0.559,1.19-0.92,1.73c-0.37,0.55-0.78,1.06-1.24,1.52c-0.47,0.46-0.98,0.88-1.52,1.24
	c-0.55,0.36-1.13,0.67-1.73,0.92s-1.23,0.45-1.87,0.58C323.46,437.94,322.81,438,322.15,438z"/>
<path d="M428.994,457.538c-0.019-0.049-0.038-0.097-0.057-0.145L317.645,181.358v-35.999h8.894c5.523,0,10-4.477,10-10V88.163
	c0-5.523-4.477-10-10-10H185.461c-5.523,0-10,4.477-10,10v47.196c0,5.523,4.477,10,10,10h8.894v35.999L83.063,457.393
	c-0.02,0.048-0.039,0.096-0.057,0.145c-4.748,12.324-3.119,26.183,4.355,37.072c7.475,10.889,19.822,17.39,33.03,17.39H391.61
	c13.207,0,25.555-6.501,33.03-17.39C432.113,483.721,433.742,469.862,428.994,457.538z M195.461,98.163h121.077v27.196H195.461
	V98.163z M408.15,483.292c-3.799,5.534-9.828,8.708-16.54,8.708H120.391c-6.713,0-12.742-3.174-16.541-8.708
	c-3.786-5.515-4.588-12.254-2.206-18.5L213.63,187.037c0.48-1.189,0.726-2.458,0.726-3.739v-37.939h83.289v37.939
	c0,1.281,0.246,2.551,0.726,3.739l111.986,277.754C412.738,471.038,411.936,477.776,408.15,483.292z"/>
<path d="M300.568,235.406c-1.486-3.86-5.196-6.406-9.332-6.406h-70.473c-4.136,0-7.845,2.546-9.332,6.406l-85.896,223
	c-1.185,3.075-0.778,6.537,1.087,9.253c1.865,2.717,4.949,4.341,8.245,4.341h242.265c3.295,0,6.379-1.624,8.245-4.341
	c1.865-2.717,2.271-6.178,1.087-9.253L300.568,235.406z M227.628,249.001h56.744l11.306,29.351h-79.355L227.628,249.001z
	 M149.436,452l5.393-14h130.66c5.523,0,10-4.477,10-10s-4.477-10-10-10H162.532l46.087-119.648h94.763L362.564,452H149.436z"/>
<g>
</g>
<g>
</g>
<g>
</g>
<g>
</g>
<g>
</g>
<g>
</g>
<g>
</g>
<g>
</g>
<g>
</g>
<g>
</g>
<g>
</g>
<g>
</g>
<g>
</g>
<g>
</g>
<g>
</g>
</svg>
