<?xml version="1.0" encoding="iso-8859-1"?>
<!-- Generator: Adobe Illustrator 18.1.1, SVG Export Plug-In . SVG Version: 6.00 Build 0)  -->
<svg version="1.1" id="Capa_1" xmlns="http://www.w3.org/2000/svg" xmlns:xlink="http://www.w3.org/1999/xlink" x="0px" y="0px"
	 viewBox="0 0 18.775 18.775" style="enable-background:new 0 0 18.775 18.775;" xml:space="preserve">
	<g>
		<path style="fill:#030104;" d="M6.105,13.161c-0.04,0.001-0.08,0.004-0.118,0.004c-0.995,0-1.355,0.646-1.589,0.312
			s0.483-1.079,1.38-1.024C4.921,10.307,4.995,8.375,5.41,6.036C2.36,5.555,0,2.609,0,6.055c0,3.738,2.775,10.174,6.199,10.174
			c0.515,0,1.015-0.148,1.492-0.409C7.136,15.463,6.469,13.844,6.105,13.161z M2.765,9.036C1.822,8.672,1.191,8.029,1.356,7.598
			c0.166-0.43,1.065-0.483,2.009-0.12c0.943,0.363,1.574,1.008,1.407,1.437C4.608,9.345,3.708,9.399,2.765,9.036z"/>
		<path style="fill:#030104;" d="M12.675,5.976c-3.229-1.138-4.588-5.629-5.83-2.105C5.603,7.396,6.08,14.39,9.309,15.526
			c3.23,1.138,7.985-4.009,9.229-7.533C19.779,4.467,15.905,7.114,12.675,5.976z M7.602,5.805c0.324-0.377,1.257-0.111,2.085,0.596
			c0.829,0.708,1.239,1.587,0.917,1.965c-0.323,0.378-1.256,0.11-2.084-0.597C7.692,7.062,7.281,6.182,7.602,5.805z M11.923,13.531
			c-0.137,0.393-1.012,0.443-1.95,0.111c-0.938-0.331-1.588-0.917-1.448-1.309c0.137-0.393,0.744,0.315,1.682,0.646
			S12.062,13.139,11.923,13.531z M14.8,9.988c-1.089,0.039-1.986-0.331-2.004-0.828c-0.019-0.496,0.853-0.93,1.938-0.969
			c1.089-0.04,1.986,0.331,2.004,0.827C16.757,9.514,15.888,9.949,14.8,9.988z"/>
	</g>
</svg>
