<?xml version="1.0" encoding="iso-8859-1"?>
<!-- Generator: Adobe Illustrator 19.0.0, SVG Export Plug-In . SVG Version: 6.00 Build 0)  -->
<svg version="1.1" id="Capa_1" xmlns="http://www.w3.org/2000/svg" xmlns:xlink="http://www.w3.org/1999/xlink" x="0px" y="0px"
	 viewBox="0 0 511.999 511.999" style="enable-background:new 0 0 511.999 511.999;" xml:space="preserve">
<path style="fill:#EEEEEE;" d="M422.344,276.87c-28.445-35.273-63.213-77.51-66.586-77.51c-7.935,0-49.181,31.157-60.983,56.53
	c-15.787,0.364-50.814,0.366-66.757,0.009c-0.142-0.003-0.295-0.006-0.436-0.009c-11.804-25.373-63.456-56.53-71.391-56.53
	c-3.39,0-38.498,42.672-67.024,78.053c-3.065,22.566-4.817,47.477-1.016,63.314c1.365,5.688,4.434,13.474,8.928,22.566
	c10.857,21.968,30.065,51.58,53.851,77.809C181.001,474.261,218.386,502,255.472,502c33.623,0,70.468-28.913,101.174-62.702
	c24.356-26.803,44.851-56.671,56.797-77.62c5.582-9.79,9.3-17.632,10.673-22.3C427.668,327.301,425.565,301.154,422.344,276.87z"/>
<path style="fill:#EF717A;" d="M183.475,394.942c0-27.063-21.938-49-49-49c-14.994,0-28.407,6.742-37.396,17.352
	c10.857,21.968,30.065,51.58,53.851,77.809C169.897,434.341,183.475,416.232,183.475,394.942z"/>
<path style="fill:#EE584F;" d="M377.475,345.942c-27.063,0-49,21.938-49,49c0,19.613,11.526,36.525,28.171,44.355
	c24.356-26.803,44.851-56.671,56.797-77.62C404.491,352.005,391.694,345.942,377.475,345.942z"/>
<g>
	<path style="fill:#75706B;" d="M278.581,88.8c10.797-41.523,1.443-65.742-7.461-78.289C266.179,10.176,261.121,10,255.975,10
		c-56.064,0-101.513,20.646-101.513,46.114c0,11.703,9.603,27.58,25.417,41.324c20.966-6.508,43.49-10.431,67.368-10.431
		C257.877,87.008,268.326,87.646,278.581,88.8z"/>
	<path style="fill:#75706B;" d="M278.581,88.8c0.321,0.036,0.646,0.068,0.967,0.105c17.581,2.037,34.372,5.655,50.292,10.42
		c17.139-14.158,27.647-30.967,27.647-43.211c0-23.129-37.486-42.281-86.367-45.604C280.025,23.058,289.378,47.276,278.581,88.8z"/>
	<path style="fill:#75706B;" d="M486.009,266.952c-11.861,26.918-26.132,56.906-26.132,56.906s-41.053-51.353-37.533-46.988
		c3.221,24.284,5.324,50.431,1.771,62.508c-4.919,16.725-39.922,74.171-83.046,116.059c96.231-6.115,160.63-23.396,160.63-51.412
		C501.699,388.304,505.351,328.69,486.009,266.952z"/>
	<path style="fill:#75706B;" d="M88.152,340.728c-3.802-15.838-2.05-40.748,1.016-63.315
		c-20.196,25.049-37.095,46.445-37.095,46.445l-26.367-61.703c-19.377,63.42-15.392,125.742-15.392,141.869
		c0,27.369,61.456,44.494,154.011,50.972C123.915,415.694,93.415,362.652,88.152,340.728z"/>
	<path style="fill:#75706B;" d="M279.548,88.905c21.69,16.64,30.869,59.626-51.53,166.994c15.942,0.357,50.97,0.356,66.757-0.009
		c11.803-25.373,53.049-56.53,60.983-56.53c5.79,0,104.119,124.498,104.119,124.498s41.784-87.804,41.784-97.783
		C501.661,210.529,413.138,104.38,279.548,88.905z"/>
</g>
<g>
	<path style="fill:#CBC2BA;" d="M175.676,98.788C74.036,132.339,10.288,226.075,10.288,226.075l41.784,97.783
		c0,0,98.329-124.498,104.119-124.498C169.805,199.36,205.254,110.293,175.676,98.788z"/>
	<path style="fill:#CBC2BA;" d="M279.548,88.905c-10.563-1.225-21.337-1.897-32.301-1.897c-25.482,0-49.422,4.469-71.571,11.78
		c29.578,11.505-0.496,73.486-15.936,101.449c14.193,5.217,57.202,32.783,67.842,55.653c0.141,0.003,0.294,0.006,0.436,0.009
		C310.417,148.531,301.239,105.545,279.548,88.905z"/>
</g>
<g>
	<path style="fill:#231F20;" d="M25.565,47.353c0.69,0.149,1.4,0.22,2.1,0.22c4.681,0,8.79-3.32,9.771-7.9
		c1.16-5.39-2.29-10.72-7.68-11.88c-0.7-0.14-1.4-0.22-2.11-0.22c-4.67,0-8.78,3.33-9.76,7.91
		C16.725,40.872,20.175,46.202,25.565,47.353z"/>
	<path style="fill:#231F20;" d="M484.275,47.572c0.71,0,1.41-0.07,2.11-0.22c2.609-0.561,4.85-2.101,6.3-4.341
		c1.45-2.239,1.939-4.92,1.38-7.529c-0.979-4.58-5.09-7.91-9.77-7.91c-0.7,0-1.41,0.08-2.101,0.22c-5.39,1.16-8.84,6.49-7.68,11.88
		C475.494,44.252,479.595,47.572,484.275,47.572z"/>
	<path style="fill:#231F20;" d="M285.047,412.032c-5.549,1.349-21.806,4.85-30.272,4.85c-8.415,0-22.934-3.154-27.818-4.369
		c-5.355-1.335-10.784,1.925-12.12,7.284c-1.336,5.358,1.925,10.786,7.284,12.122c0.813,0.202,20.052,4.963,32.654,4.963
		c12.358,0,32.715-4.861,34.996-5.416c5.366-1.305,8.659-6.712,7.355-12.079C295.822,414.02,290.418,410.724,285.047,412.032z"/>
	<path style="fill:#231F20;" d="M361.199,301.933c5.302,1.496,10.817-1.574,12.333-6.873c1.519-5.31-1.555-10.846-6.864-12.364
		c-2.336-0.667-23.275-6.238-39.301,3.698c-11.898,7.379-25.398,13.198-25.531,13.256c-5.076,2.175-7.429,8.053-5.253,13.13
		c1.624,3.792,5.315,6.065,9.196,6.065c1.314,0,2.649-0.261,3.934-0.812c0.605-0.259,14.982-6.448,28.194-14.642
		C345.149,298.902,357.171,300.817,361.199,301.933z"/>
	<path style="fill:#231F20;" d="M210.115,299.651c-0.135-0.06-13.635-5.879-25.534-13.259c-16.024-9.937-36.966-4.364-39.3-3.697
		c-5.31,1.519-8.383,7.055-6.864,12.364c1.519,5.309,7.053,8.383,12.364,6.864c3.711-1.061,15.947-3.068,23.26,1.466
		c13.213,8.194,27.59,14.384,28.195,14.642c1.284,0.551,2.619,0.812,3.933,0.812c3.879-0.001,7.569-2.272,9.195-6.063
		C217.54,307.706,215.19,301.827,210.115,299.651z"/>
	<path style="fill:#231F20;" d="M242.539,393.067l11.761,2.325c0.641,0.127,3.3,0.121,3.969-0.018l11.23-2.326
		c5.408-1.12,8.884-6.412,7.764-11.82c-1.121-5.409-6.422-8.881-11.82-7.764l-9.247,1.915l-9.774-1.933
		c-5.418-1.077-10.679,2.451-11.75,7.87C233.598,386.735,237.121,391.995,242.539,393.067z"/>
	<path style="fill:#231F20;" d="M496.653,267.589c15.006-34.318,15.009-38.744,15.009-41.514c0-6.954-6.143-17.803-18.259-32.242
		c-8.697-10.367-47.931-48.889-70.351-61.404c0,0,63.503,13.514,64.213,13.514c4.67,0,8.78-3.32,9.76-7.91
		c0.561-2.61,0.07-5.28-1.38-7.52c-1.45-2.25-3.69-3.79-6.3-4.35L355.68,97.553c-2.266-0.869-4.554-1.722-6.871-2.551
		c6.281-6.977,11.161-14.236,14.362-21.277l84.094-18.002c5.39-1.149,8.84-6.479,7.689-11.869c-0.98-4.58-5.09-7.91-9.77-7.91
		c-3.38,0-77.922,16.454-77.922,16.454C364.043,25.278,319.138,0,255.975,0c-28.511,0-55.473,5.115-75.916,14.402
		c-21.214,9.637-33.61,23.021-35.371,37.994c0,0-77.223-16.454-77.923-16.454c-4.68,0-8.79,3.33-9.771,7.91
		c-1.15,5.39,2.301,10.72,7.69,11.869l84.022,17.986c2.913,6.445,7.264,13.068,12.839,19.521c-5.376,2.05-10.649,4.237-15.788,6.57
		L22.605,126.162c-2.61,0.56-4.85,2.1-6.3,4.35c-1.45,2.24-1.95,4.91-1.391,7.52c0.99,4.59,5.091,7.91,9.77,7.91
		c0.7,0,65.948-13.887,65.948-13.887c-16.92,12.197-31.309,24.764-42.708,35.76C18.872,195.84,2.694,219.46,2.02,220.452
		c-1.917,2.817-2.267,6.418-0.927,9.553l14.004,32.773C-1.421,320.39,0.314,402.329,0.314,404.024
		c0,18.102,16.581,32.52,49.284,42.855c26.584,8.402,63.721,14.396,110.411,17.83c25.644,24.31,59.418,47.29,95.463,47.29
		c31.824,0,64.179-22.507,89.852-46.821c48.595-3.253,87.297-9.193,115.067-17.671c34.046-10.393,51.309-25.022,51.309-43.483
		C511.699,402.369,513.227,322.853,496.653,267.589z M431.424,162.929c37.59,28.758,57.604,56.055,60.12,63.338
		c-1.89,8.253-17.447,43.7-33.842,78.762c-6.934-8.717-82.758-100.97-86.781-105.313c-6.669-7.2-10.118-10.355-15.163-10.355
		c-9.822,0-28.135,14.797-35.552,21.159c-8.458,7.257-22.91,20.832-31.507,35.479c-7.328,0.107-36.186,0.156-40.216,0.136
		l0.001-0.001c-0.227-0.001-0.46-0.002-0.685-0.003c30.776-42.37,49.196-77.896,54.819-105.774
		c3.234-16.033,2.048-28.388-1.333-37.866C358.471,111.608,407.188,144.387,431.424,162.929z M347.488,56.114
		c0,6.912-6.311,19.522-20.064,32.07c-13.451-4.242-36.063-7.777-36.661-7.867c4.865-25.09,2.541-43.967-2.352-57.814
		C325.333,28.387,347.488,43.439,347.488,56.114z M283.014,136.402c-5.25,26.029-23.629,60.446-54.645,102.403
		c-9.012-11.169-21.705-21.41-32.13-28.839c-1.81-1.29-12.336-8.705-22.716-14.274c37.281-56,21.597-91.11,21.156-92.032
		c17.484-4.417,35.115-6.652,52.567-6.652c9.197,0,18.667,0.53,28.175,1.53C283.922,106.449,286.492,119.156,283.014,136.402z
		 M265.466,20.21c6.361,11.064,11.216,29.248,5.367,57.787c-7.953-0.657-15.854-0.989-23.586-0.989
		c-21.556,0-43.327,3.104-64.799,9.232c-12.388-11.943-17.986-23.494-17.986-30.125C164.462,39.067,209.805,16.944,265.466,20.21z
		 M174.721,109.676c1.038,0.913,11.834,27.517-20.533,79.818c-8.716,0.782-92.692,106.423-99.516,114.999L21.71,227.355
		C35.34,209.128,92.139,138.604,174.721,109.676z M20.314,404.024c0-1.942-1.37-66.574,7.793-110.802l14.771,34.564
		c1.386,3.244,4.379,5.518,7.876,5.982c3.503,0.475,6.98-0.946,9.167-3.714c0.104-0.132,6.593-8.346,16.233-20.427
		c-0.006,0.169-0.009,0.304-0.01,0.434c-0.488,13.546,0.256,24.598,2.285,32.999c5.044,20.883,32.711,70.881,60.634,99.78
		C46.094,433.627,20.314,414.567,20.314,404.024z M153.55,428.956c-18.6-21.478-34.222-44.978-44.271-63.77
		c6.997-5.933,15.89-9.244,25.196-9.244c21.505,0,39,17.495,39,39C173.475,409.175,165.682,422.139,153.55,428.956z M255.472,492
		c-41.417,0-86.804-46.765-88.105-48.081c16.03-10.793,26.107-29.067,26.107-48.977c0-32.533-26.468-59-59-59
		c-12.27,0-24.06,3.799-33.891,10.709c-1.237-3.165-2.158-5.963-2.709-8.258c-2.784-11.598-2.491-31.229,0.836-56.884
		c39.76-49.265,54.363-65.641,59.688-71.075c12.967,5.763,51.204,30.517,60.117,49.674c1.608,3.459,5.044,5.7,8.857,5.78l0.42,0.008
		c7.62,0.171,59.677,0.165,67.212-0.009c3.806-0.088,7.231-2.328,8.837-5.779c8.93-19.197,38.467-43.188,49.93-49.448
		c5.48,5.633,20.136,22.127,59.021,70.297c4.767,37.165,3.149,50.772,1.729,55.599c-0.288,0.98-1.263,3.878-4.046,9.501
		c-9.677-6.522-21.184-10.114-33.001-10.114c-32.533,0-59,26.467-59,59c0,18.237,8.556,35.326,22.563,46.381
		C316.958,466.17,284.856,492,255.472,492z M338.475,394.942c0-21.505,17.495-39,39-39c8.521,0,16.542,2.688,23.203,7.658
		c-10.695,17.701-26.773,40.861-46.035,62.92C344.653,419.262,338.475,407.524,338.475,394.942z M491.699,404.024
		c0,10.912-27.164,30.527-125.324,39.444c36.336-40.572,62.859-86.056,67.334-101.269c2.083-7.082,2.724-17.918,1.916-32.786
		c0.031,0.04,0.057,0.056,0.084,0.077c5.48,6.876,10.953,13.77,16.32,20.564c1.908,2.416,4.808,3.803,7.847,3.803
		c3.929,0,7.546-2.582,9.03-5.704c0.084-0.175,6.713-14.115,14.626-31.364C492.903,340.072,491.699,402.27,491.699,404.024z"/>
</g>
<g>
</g>
<g>
</g>
<g>
</g>
<g>
</g>
<g>
</g>
<g>
</g>
<g>
</g>
<g>
</g>
<g>
</g>
<g>
</g>
<g>
</g>
<g>
</g>
<g>
</g>
<g>
</g>
<g>
</g>
</svg>
