<?xml version="1.0" encoding="iso-8859-1"?>
<!-- Generator: Adobe Illustrator 19.0.0, SVG Export Plug-In . SVG Version: 6.00 Build 0)  -->
<svg version="1.1" id="Capa_1" xmlns="http://www.w3.org/2000/svg" xmlns:xlink="http://www.w3.org/1999/xlink" x="0px" y="0px"
	 viewBox="0 0 496 496" style="enable-background:new 0 0 496 496;" xml:space="preserve">
<rect x="232" y="8" style="fill:#D3A06C;" width="256" height="400"/>
<rect x="232" y="384" style="fill:#B27946;" width="256" height="24"/>
<rect x="264" y="40" style="fill:#FFEAA7;" width="192" height="368"/>
<rect x="296" y="72" style="fill:#39C3FC;" width="128" height="32"/>
<rect x="264" y="384" style="fill:#FCD770;" width="192" height="24"/>
<path style="fill:#ECECEC;" d="M280,315.4V256h-48v59.4c-36.92,10.456-64,44.328-64,84.6c0,48.6,39.4,88,88,88s88-39.4,88-88
	C344,359.728,316.92,325.856,280,315.4z"/>
<path style="fill:#B6C1CE;" d="M256,464c-44.552,0-81.28-33.136-87.104-76.096C168.352,391.864,168,395.888,168,400
	c0,48.6,39.4,88,88,88s88-39.4,88-88c0-4.112-0.352-8.136-0.896-12.096C337.28,430.864,300.552,464,256,464z"/>
<path style="fill:#39C3FC;" d="M96,208v77.808c0,17.016-5.424,33.584-15.488,47.312L16.92,419.84
	c-4.128,5.624-7.24,12.048-8.352,18.936C4.304,465.184,24.584,488,50.192,488h154.264c16.528,0,32.312-8.88,39.384-23.816
	c6.936-14.656,4.944-31.12-4-43.32l-64.352-87.744C165.424,319.4,160,302.824,160,285.808V208H96z"/>
<path style="fill:#148CE0;" d="M239.832,420.864l-64.344-87.744C165.424,319.4,160,302.824,160,285.808V208h-24v77.808
	c0,17.016,5.424,33.584,15.488,47.312l64.344,87.744c8.944,12.192,10.936,28.664,4,43.32C212.76,479.12,196.984,488,180.456,488h24
	c16.528,0,32.312-8.88,39.384-23.816C250.776,449.52,248.776,433.056,239.832,420.864z"/>
<path style="fill:#ECECEC;" d="M280,256h-48c-8.84,0-16-7.16-16-16l0,0c0-8.84,7.16-16,16-16h48c8.84,0,16,7.16,16,16l0,0
	C296,248.84,288.84,256,280,256z"/>
<g>
	<circle style="fill:#FCD770;" cx="24" cy="88" r="16"/>
	<circle style="fill:#FCD770;" cx="144" cy="128" r="16"/>
	<circle style="fill:#FCD770;" cx="128" cy="24" r="16"/>
</g>
<path style="fill:#39C3FC;" d="M160,208H96c-8.84,0-16-7.16-16-16l0,0c0-8.84,7.16-16,16-16h64c8.84,0,16,7.16,16,16l0,0
	C176,200.84,168.84,208,160,208z"/>
<g>
	<path style="fill:#B6C1CE;" d="M225.888,482.6c4.568,1.664,9.288,2.992,14.168,3.888c11.96-3.104,22.392-10.936,27.776-22.304
		c6.936-14.656,4.944-31.12-4-43.32l-64.344-87.744c-0.064-0.088-0.12-0.184-0.184-0.272c-5.032,4.24-9.592,9.008-13.56,14.256
		l54.088,73.76c8.944,12.192,10.936,28.664,4,43.32C240,472.28,233.568,478.512,225.888,482.6z"/>
	<rect x="232" y="256" style="fill:#B6C1CE;" width="48" height="24"/>
</g>
<rect x="96" y="208" style="fill:#148CE0;" width="64" height="24"/>
<rect x="24.818" y="395.432" transform="matrix(-0.5898 0.8076 -0.8076 -0.5898 434.8443 585.9752)" width="87.548" height="16.001"/>
<rect x="99.926" y="342.098" transform="matrix(-0.5898 0.8076 -0.8076 -0.5898 453.6633 469.746)" width="15.193" height="16.001"/>
<path d="M496,0H224v217.472c-9.288,3.312-16,12.112-16,22.528c0,10.416,6.712,19.216,16,22.528v47.032
	c-14.296,5.08-27.288,13.64-37.76,24.696l-4.304-5.872C172.824,315.952,168,301.232,168,285.816v-71.288
	c9.288-3.312,16-12.112,16-22.528c0-13.232-10.768-24-24-24H96c-13.232,0-24,10.768-24,24c0,10.416,6.712,19.216,16,22.528v71.288
	c0,15.424-4.824,30.144-13.936,42.568l-63.6,86.728c-5.256,7.176-8.552,14.72-9.792,22.4c-2.376,14.728,1.736,29.6,11.288,40.832
	C21.52,489.56,35.456,496,50.184,496h154.264c7.832,0,15.352-1.72,22.136-4.792C236.216,494.336,246.088,496,256,496
	c47.472,0,86.904-34.672,94.552-80H496V0z M232,232h48c4.416,0,8,3.592,8,8s-3.584,8-8,8h-48c-4.416,0-8-3.592-8-8
	S227.584,232,232,232z M96,184h64c4.416,0,8,3.592,8,8s-3.584,8-8,8H96c-4.416,0-8-3.592-8-8S91.584,184,96,184z M50.184,480
	c-10.04,0-19.528-4.392-26.048-12.04c-6.6-7.76-9.328-17.664-7.672-27.904c0.832-5.168,3.152-10.376,6.896-15.488l63.6-86.72
	C98.112,322.656,104,304.664,104,285.816V216h48v69.816c0,18.848,5.888,36.84,17.032,52.04l64.352,87.736
	c7.448,10.168,8.68,23.64,3.216,35.168c-5.52,11.688-18.144,19.24-32.144,19.24H50.184z M256,480c-4.184,0-8.368-0.384-12.52-1.064
	c3.032-3.384,5.624-7.168,7.592-11.336c7.968-16.84,6.144-36.568-4.784-51.48l-50.416-68.744
	c10.168-11.56,23.568-20.104,38.312-24.288l5.816-1.64V264h32v57.448l5.824,1.648C312.08,332.808,336,364.424,336,400
	C336,444.112,300.112,480,256,480z M288,309.552V262.52c9.288-3.312,16-12.112,16-22.528c0-13.232-10.768-24-24-24h-8V48h176v352
	h-96C352,359.352,325.968,322.992,288,309.552z M480,400h-16V32H256v184h-16V16h240V400z"/>
<path d="M288,64v48h144V64H288z M416,96H304V80h112V96z"/>
<path d="M24,112c13.232,0,24-10.768,24-24S37.232,64,24,64S0,74.768,0,88S10.768,112,24,112z M24,80c4.416,0,8,3.592,8,8
	s-3.584,8-8,8s-8-3.592-8-8S19.584,80,24,80z"/>
<path d="M120,128c0,13.232,10.768,24,24,24s24-10.768,24-24s-10.768-24-24-24S120,114.768,120,128z M152,128c0,4.408-3.584,8-8,8
	s-8-3.592-8-8s3.584-8,8-8S152,123.592,152,128z"/>
<path d="M128,48c13.232,0,24-10.768,24-24S141.232,0,128,0s-24,10.768-24,24S114.768,48,128,48z M128,16c4.416,0,8,3.592,8,8
	s-3.584,8-8,8s-8-3.592-8-8S123.584,16,128,16z"/>
<rect x="416" y="208" width="16" height="48"/>
<path d="M290.552,346.128l-8.64,13.472C295.744,368.472,304,383.576,304,400c0,12.632-4.864,24.56-13.712,33.584l11.424,11.2
	C313.504,432.752,320,416.84,320,400C320,378.112,308.992,357.968,290.552,346.128z"/>
<path d="M256,352c4.864,0,9.672,0.728,14.288,2.16l4.736-15.28C268.872,336.968,262.48,336,256,336V352z"/>
<g>
</g>
<g>
</g>
<g>
</g>
<g>
</g>
<g>
</g>
<g>
</g>
<g>
</g>
<g>
</g>
<g>
</g>
<g>
</g>
<g>
</g>
<g>
</g>
<g>
</g>
<g>
</g>
<g>
</g>
</svg>
