<svg width="512" height="512" xmlns="http://www.w3.org/2000/svg" xmlns:svg="http://www.w3.org/2000/svg">
 <g>
  <title>Layer 1</title>
  <path id="svg_1" fill="#35b74a" d="m231.02,152.273l0,-4.47c0,-0.754 -0.013,-1.516 -0.038,-2.288c-1.249,-38.206 -35.263,-67.052 -73.308,-63.332c0,0 -52.699,6.537 -85.784,8.387c-20.579,1.151 -27.676,31.631 -27.676,53.815l0,7.888l0,8.845l4.784,68.31c24.684,0 31.75,-32.954 31.75,-57.637l0,-9.846l12.228,3.221c29.29,7.716 60.05,7.937 89.448,0.642l13.924,-3.456c5.495,18.46 -0.816,67.075 29.889,67.075l4.783,-77.154l0,0z"/>
  <path id="svg_2" fill="#F9E2A1" d="m196.347,162.353l-13.924,3.456c-29.397,7.295 -60.158,7.074 -89.447,-0.642l-12.228,-3.221l0,9.846c0,20.955 -5.099,47.859 -21.74,55.512l0,1.08c0,33.28 20.692,61.709 49.904,73.178l-8.095,31.658l36.8,25.428l36.8,-25.428l-8.095,-31.657c29.212,-11.469 49.904,-39.898 49.904,-73.178l0,-1.152c-19.278,-9.677 -15.082,-48.766 -19.879,-64.88z"/>
  <path id="svg_3" fill="#e57c4b" d="m238.018,331.72l-63.984,0l0.383,1.498l-36.8,25.428l-36.8,-25.428l0.383,-1.498l-63.983,0c-15.024,0 -27.217,12.193 -27.217,27.217l0,143.063l255.234,0l0,-143.063c0,-15.024 -12.18,-27.217 -27.216,-27.217z"/>
  <polygon id="svg_4" fill="#BEE6F2" points="174.417,333.218 137.617,358.646 100.817,333.218 101.2,331.72 72.756,331.72 98.026,502   177.208,502 202.479,331.72 174.034,331.72 "/>
  <polygon id="svg_5" fill="#f75959" points="137.617,358.646 116.38,343.972 104.976,450.332 137.617,483.751 170.258,450.332   158.854,343.972 "/>
  <path id="svg_6" d="m370.44,512c-0.65,0 -1.31,-0.06 -1.949,-0.19c-0.641,-0.13 -1.271,-0.33 -1.87,-0.58c-0.61,-0.25 -1.19,-0.56 -1.73,-0.92c-0.55,-0.36 -1.059,-0.78 -1.52,-1.24c-0.46,-0.46 -0.88,-0.97 -1.24,-1.52c-0.36,-0.54 -0.67,-1.12 -0.92,-1.73c-0.25,-0.6 -0.44,-1.23 -0.57,-1.87c-0.13,-0.64 -0.2,-1.3 -0.2,-1.95c0,-0.65 0.07,-1.31 0.2,-1.95s0.32,-1.27 0.57,-1.87c0.25,-0.61 0.56,-1.19 0.92,-1.73c0.36,-0.55 0.78,-1.06 1.24,-1.52s0.97,-0.88 1.52,-1.24c0.54,-0.36 1.12,-0.67 1.73,-0.92c0.6,-0.25 1.23,-0.44 1.87,-0.57c1.29,-0.26 2.619,-0.26 3.909,0c0.631,0.13 1.261,0.32 1.87,0.57c0.601,0.25 1.181,0.56 1.721,0.92c0.55,0.36 1.06,0.78 1.52,1.24s0.88,0.97 1.25,1.52c0.36,0.54 0.67,1.12 0.92,1.73c0.25,0.6 0.44,1.23 0.57,1.87s0.19,1.3 0.19,1.95c0,0.65 -0.06,1.31 -0.19,1.95s-0.32,1.27 -0.57,1.87c-0.25,0.61 -0.56,1.19 -0.92,1.73c-0.37,0.55 -0.79,1.06 -1.25,1.52s-0.97,0.88 -1.52,1.24c-0.54,0.36 -1.12,0.67 -1.721,0.92c-0.609,0.25 -1.239,0.45 -1.87,0.58c-0.65,0.13 -1.31,0.19 -1.96,0.19z"/>
  <path fill="black" id="svg_7" d="m333.109,492l-57.875,0l0,-133.064c0,-20.521 -16.695,-37.216 -37.217,-37.216l-35.539,0l-20.68,0l-3.711,-14.512c12.907,-6.622 23.98,-16.3 32.354,-28.352c8.214,-11.822 13.336,-25.286 15.092,-39.437c0.235,0.004 0.471,0.009 0.702,0.009c5.282,0 9.654,-4.109 9.98,-9.381l4.784,-77.155c0.013,-0.206 0.019,-0.412 0.019,-0.619l0,-4.47c0,-0.862 -0.015,-1.735 -0.043,-2.615c-0.685,-20.94 -9.817,-40.156 -25.712,-54.106c-16.014,-14.053 -37.357,-20.923 -58.564,-18.851c-0.087,0.008 -0.173,0.018 -0.259,0.029c-0.523,0.065 -52.748,6.517 -85.111,8.327c-13.103,0.733 -23.842,9.679 -30.241,25.191c-4.37,10.594 -6.876,24.666 -6.876,38.608l0,16.732c0,0.233 0.008,0.466 0.024,0.699l4.784,68.31c0.367,5.239 4.724,9.301 9.976,9.301c0.236,0 0.465,-0.022 0.7,-0.027c1.755,14.158 6.877,27.628 15.095,39.455c8.373,12.051 19.447,21.73 32.354,28.351l-3.711,14.512l-20.68,0l-35.537,0c-20.522,0.001 -37.217,16.696 -37.217,37.217l0,143.064c0,5.523 4.477,10 10,10l14.341,0l73.686,0l79.182,0l88.026,0l67.875,0c5.522,0 10,-4.477 10,-10c-0.001,-5.523 -4.478,-10 -10.001,-10zm-155.121,-63.378l-8.558,-79.803l10.273,-7.099l11.181,0l-12.896,86.902zm-18.174,18.092l-22.196,22.726l-22.196,-22.726l9.11,-84.955l7.401,5.114c0.428,0.296 0.872,0.554 1.33,0.776c2.747,1.33 5.962,1.33 8.709,0c0.458,-0.222 0.903,-0.48 1.33,-0.776l7.401,-5.114l9.111,84.955zm-105.6,-302.328c0,-21.044 6.82,-43.192 18.234,-43.83c32.535,-1.82 82.719,-7.986 86.322,-8.432c15.677,-1.497 31.459,3.597 43.302,13.99c11.695,10.264 18.413,24.373 18.916,39.73c0.021,0.661 0.032,1.314 0.032,1.959l0,4.161l-3.915,63.144c-0.813,-1.03 -1.541,-2.252 -2.2,-3.657c-0.084,-0.18 -0.164,-0.366 -0.245,-0.551c-0.113,-0.255 -0.224,-0.515 -0.332,-0.781c-0.079,-0.194 -0.158,-0.388 -0.235,-0.586c-2.44,-6.359 -3.816,-15.836 -5.001,-28.578c-0.012,-0.128 -0.024,-0.259 -0.036,-0.386c-0.727,-7.878 -1.413,-15.319 -3.125,-21.069c-1.524,-5.121 -6.805,-8.14 -11.992,-6.852l-13.925,3.455c-27.688,6.87 -56.905,6.661 -84.491,-0.606l-12.228,-3.222c-2.997,-0.791 -6.194,-0.145 -8.652,1.749c-2.456,1.894 -3.896,4.819 -3.896,7.921l0,9.846c0,0.504 -0.005,1.01 -0.012,1.517c-0.005,0.351 -0.012,0.705 -0.02,1.064c-0.002,0.074 -0.003,0.147 -0.005,0.221c-0.363,13.991 -3.478,33.551 -12.63,41.389l-3.867,-55.212l0,-16.384l0.001,0zm14.936,88.483c18.052,-13.287 21.218,-42.511 21.563,-57.957c3.72,0.974 7.467,1.827 11.233,2.571c0.124,0.025 0.247,0.054 0.371,0.079c0.604,0.118 1.212,0.214 1.817,0.326c26.683,4.948 54.308,4.175 80.697,-2.373l3.545,-0.879c0.273,2.441 0.516,5.078 0.765,7.773c0.091,0.989 0.185,1.994 0.28,3.004c0.016,0.169 0.032,0.337 0.048,0.506c0.041,0.433 0.083,0.866 0.126,1.302c0.021,0.222 0.044,0.444 0.066,0.666c0.134,1.35 0.277,2.711 0.431,4.08c0.032,0.287 0.065,0.573 0.098,0.86c0.042,0.362 0.086,0.725 0.13,1.087c0.038,0.313 0.077,0.627 0.117,0.941c0.044,0.346 0.088,0.691 0.134,1.037c0.053,0.395 0.108,0.791 0.163,1.186c0.05,0.358 0.101,0.716 0.153,1.075c0.079,0.538 0.161,1.077 0.246,1.614c0.039,0.248 0.081,0.495 0.122,0.743c0.074,0.449 0.15,0.898 0.228,1.347c0.04,0.229 0.081,0.459 0.123,0.688c0.098,0.539 0.2,1.077 0.306,1.614c0.025,0.125 0.048,0.25 0.073,0.374c0.286,1.428 0.604,2.844 0.953,4.243c0.006,0.025 0.013,0.049 0.019,0.074c2.343,9.346 6.209,17.889 13.151,23.643c-1.561,26.699 -18.262,49.875 -43.438,59.76c-4.696,1.844 -7.284,6.897 -6.034,11.786l6.37,24.911l-9.832,6.794c-0.001,0.001 -0.002,0.001 -0.003,0.002l-15.552,10.746l-15.552,-10.746c-0.001,-0.001 -0.002,-0.001 -0.003,-0.002l-9.832,-6.794l6.37,-24.912c1.25,-4.888 -1.338,-9.941 -6.034,-11.785c-25.06,-9.839 -41.722,-32.844 -43.418,-59.384zm26.38,108.851l10.273,7.099l-8.558,79.803l-12.895,-86.902l11.18,0zm-75.53,150.28l0,-133.064c0,-9.493 7.724,-17.216 17.217,-17.216l26.914,0l22.302,150.28l-62.092,0l-4.341,0zm82.165,-30.234l28.298,28.973c0.462,0.473 0.966,0.893 1.503,1.261l-25.315,0l-4.486,-30.234zm41.103,30.234c0.537,-0.368 1.042,-0.789 1.503,-1.261l28.298,-28.973l-4.486,30.234l-25.315,0zm45.533,0l22.302,-150.28l26.914,0c9.493,0 17.217,7.723 17.217,17.216l0,133.064l-66.433,0z"/>
  <g stroke="null" id="svg_12">
   <circle stroke="#000000" id="svg_10" r="101.466156" cy="407.500004" cx="334.499996" stroke-linecap="null" stroke-linejoin="null" stroke-dasharray="null" stroke-width="20" fill="#5fbf00"/>
   <path stroke="#000000" id="svg_9" d="m346.506835,471.698087c3.98387,-3.431231 3.46119,-5.509017 -6.224791,-24.743249c-4.89095,-9.712289 -8.892602,-17.940954 -8.892602,-18.28591c0,-0.34493 13.505595,-0.62717 30.012526,-0.62717l30.012526,0l0,-18.19014l0,-18.19014l-30.250391,0c-23.324755,0 -29.989991,-0.547978 -29.113173,-2.393447c0.625462,-1.316391 4.892044,-10.051737 9.481298,-19.411849c8.650799,-17.644034 8.648084,-22.375733 -0.013366,-23.842392c-4.31048,-0.729878 -71.419518,55.349964 -73.726191,61.609536c22.353434,22.350088 49.073364,45.744898 73.686769,66.372473c1.29781,0 3.560108,-1.033968 5.027391,-2.297712l0.000005,0z" stroke-linecap="null" stroke-linejoin="null" stroke-dasharray="null" stroke-width="20" fill="#ffff00"/>
  </g>
 </g>
</svg>