<?xml version="1.0" encoding="iso-8859-1"?>
<!-- Generator: Adobe Illustrator 19.0.0, SVG Export Plug-In . SVG Version: 6.00 Build 0)  -->
<svg version="1.1" id="Layer_1" xmlns="http://www.w3.org/2000/svg" xmlns:xlink="http://www.w3.org/1999/xlink" x="0px" y="0px"
	 viewBox="0 0 512 512" style="enable-background:new 0 0 512 512;" xml:space="preserve">
<rect x="10" y="269.96" style="fill:#FC9854;" width="164.53" height="224.96"/>
<rect x="174.53" y="219.72" style="fill:#9B6738;" width="162.93" height="275.2"/>
<rect x="337.47" y="320.2" style="fill:#F9793A;" width="164.53" height="174.72"/>
<path d="M256,392.755c-5.523,0-10-4.477-10-10v-50.863c0-5.523,4.477-10,10-10c5.523,0,10,4.477,10,10v50.863
	C266,388.278,261.523,392.755,256,392.755z"/>
<path d="M74.128,423.57c-5.523,0-10-4.477-10-10v-50.863c0-5.523,4.477-10,10-10s10,4.477,10,10v50.863
	C84.128,419.093,79.651,423.57,74.128,423.57z"/>
<path d="M112.007,423.57c-5.523,0-10-4.477-10-10v-50.863c0-5.523,4.477-10,10-10s10,4.477,10,10v50.863
	C122.007,419.093,117.53,423.57,112.007,423.57z"/>
<path d="M381.053,446.008c-5.523,0-10-4.477-10-10v-50.863c0-5.523,4.477-10,10-10s10,4.477,10,10v50.863
	C391.053,441.531,386.576,446.008,381.053,446.008z"/>
<path d="M418.932,446.008c-5.523,0-10-4.477-10-10v-50.863c0-5.523,4.477-10,10-10s10,4.477,10,10v50.863
	C428.932,441.531,424.455,446.008,418.932,446.008z"/>
<path d="M456.811,446.008c-5.523,0-10-4.477-10-10v-50.863c0-5.523,4.477-10,10-10s10,4.477,10,10v50.863
	C466.811,441.531,462.334,446.008,456.811,446.008z"/>
<polygon style="fill:#4595D6;" points="252.303,17.075 284.213,67.004 341.56,81.924 303.935,127.701 307.467,186.851 
	252.303,165.214 197.14,186.851 200.671,127.701 163.047,81.924 220.393,67.004 "/>
<path d="M307.466,196.851c-1.232,0-2.47-0.228-3.65-0.691l-51.512-20.205l-51.512,20.205c-3.176,1.246-6.769,0.786-9.529-1.219
	c-2.76-2.006-4.308-5.28-4.104-8.687l3.298-55.234l-35.134-42.747c-2.167-2.636-2.839-6.195-1.785-9.44
	c1.055-3.245,3.691-5.729,6.993-6.587l53.55-13.932l29.798-46.624c1.837-2.875,5.014-4.615,8.426-4.615s6.589,1.74,8.426,4.615
	l29.798,46.624l53.55,13.932c3.302,0.859,5.938,3.342,6.993,6.587c1.054,3.245,0.381,6.804-1.785,9.44l-35.134,42.747l3.298,55.234
	c0.203,3.406-1.344,6.681-4.104,8.687C311.61,196.201,309.547,196.851,307.466,196.851z M252.303,155.214
	c1.239,0,2.478,0.23,3.651,0.69l40.597,15.924l-2.599-43.531c-0.15-2.517,0.656-4.998,2.257-6.946l27.689-33.689l-42.203-10.98
	c-2.44-0.635-4.551-2.168-5.909-4.292l-23.484-36.745L228.819,72.39c-1.358,2.125-3.468,3.658-5.909,4.292l-42.203,10.98
	l27.69,33.689c1.601,1.948,2.407,4.429,2.257,6.946l-2.599,43.531l40.597-15.924C249.825,155.444,251.064,155.214,252.303,155.214z"
	/>
<polygon style="fill:#A4E7FF;" points="51.694,192.42 21.546,155.738 67.498,143.783 93.068,103.774 118.638,143.783 
	164.59,155.738 134.441,192.42 137.271,239.818 93.068,222.48 48.864,239.818 "/>
<path d="M48.865,249.818c-2.082,0-4.145-0.65-5.879-1.91c-2.76-2.006-4.308-5.28-4.104-8.687l2.597-43.482L13.82,162.088
	c-2.167-2.636-2.839-6.195-1.785-9.44c1.055-3.245,3.691-5.729,6.993-6.587l42.156-10.968l23.458-36.704
	c1.837-2.875,5.014-4.615,8.426-4.615s6.589,1.74,8.426,4.615l23.458,36.704l42.156,10.968c3.302,0.859,5.938,3.342,6.993,6.587
	c1.054,3.245,0.381,6.804-1.785,9.44l-27.659,33.652l2.596,43.482c0.203,3.406-1.344,6.68-4.104,8.686
	c-2.761,2.005-6.354,2.465-9.529,1.219l-40.552-15.906l-40.552,15.906C51.335,249.59,50.097,249.818,48.865,249.818z
	 M39.206,161.477l20.214,24.594c1.601,1.948,2.407,4.429,2.257,6.946l-1.898,31.778l29.637-11.625c2.347-0.921,4.956-0.921,7.303,0
	l29.637,11.625l-1.897-31.779c-0.15-2.517,0.656-4.997,2.257-6.945l20.214-24.594l-30.81-8.016c-2.44-0.635-4.551-2.168-5.909-4.292
	l-17.144-26.825l-17.144,26.825c-1.358,2.124-3.468,3.658-5.909,4.292L39.206,161.477z"/>
<polygon style="fill:#70CAFC;" points="387.817,252.912 365.144,225.325 399.703,216.335 418.932,186.246 438.162,216.335 
	472.72,225.325 450.047,252.912 452.175,288.557 418.932,275.518 385.689,288.557 "/>
<path d="M452.174,298.557c-1.232,0-2.47-0.228-3.65-0.69l-29.591-11.607l-29.592,11.607c-3.175,1.246-6.768,0.786-9.529-1.219
	c-2.76-2.006-4.308-5.28-4.105-8.686l1.895-31.73l-20.183-24.557c-2.166-2.636-2.839-6.195-1.785-9.44s3.69-5.729,6.993-6.587
	l30.762-8.003l17.118-26.784c1.837-2.875,5.015-4.615,8.426-4.615l0,0c3.412,0,6.589,1.74,8.426,4.615l17.117,26.783l30.762,8.003
	c3.302,0.859,5.938,3.342,6.993,6.587c1.055,3.245,0.382,6.804-1.785,9.44l-20.183,24.557l1.895,31.73
	c0.203,3.406-1.344,6.68-4.104,8.686C456.319,297.907,454.256,298.557,452.174,298.557z M382.804,231.064l12.738,15.499
	c1.601,1.948,2.407,4.429,2.257,6.945l-1.196,20.026l18.678-7.326c2.347-0.921,4.955-0.921,7.303,0l18.677,7.326l-1.196-20.026
	c-0.15-2.517,0.656-4.997,2.257-6.945l12.738-15.499l-19.416-5.051c-2.44-0.635-4.551-2.168-5.909-4.293l-10.803-16.904
	l-10.804,16.904c-1.358,2.124-3.468,3.658-5.909,4.292L382.804,231.064z"/>
<path d="M209.28,457.74c-0.65,0-1.31-0.07-1.95-0.2c-0.64-0.12-1.27-0.32-1.87-0.57c-0.61-0.25-1.19-0.56-1.73-0.92
	c-0.55-0.36-1.06-0.78-1.52-1.24s-0.88-0.97-1.24-1.52c-0.37-0.54-0.67-1.12-0.92-1.73c-0.25-0.6-0.45-1.23-0.57-1.87
	c-0.13-0.64-0.2-1.3-0.2-1.95c0-0.65,0.07-1.31,0.2-1.95c0.12-0.64,0.32-1.27,0.57-1.87c0.25-0.61,0.55-1.19,0.92-1.73
	c0.36-0.55,0.78-1.06,1.24-1.52s0.97-0.88,1.52-1.24c0.54-0.36,1.12-0.67,1.73-0.92c0.6-0.25,1.23-0.45,1.87-0.57
	c1.29-0.26,2.61-0.26,3.9,0c0.64,0.12,1.27,0.32,1.87,0.57c0.61,0.25,1.19,0.56,1.73,0.92c0.55,0.36,1.06,0.78,1.52,1.24
	s0.88,0.97,1.24,1.52c0.36,0.54,0.67,1.12,0.92,1.73c0.25,0.6,0.45,1.23,0.57,1.87c0.13,0.64,0.2,1.3,0.2,1.95
	c0,0.65-0.07,1.31-0.2,1.95c-0.12,0.64-0.32,1.27-0.57,1.87c-0.25,0.61-0.56,1.19-0.92,1.73c-0.36,0.55-0.78,1.06-1.24,1.52
	s-0.97,0.88-1.52,1.24c-0.54,0.36-1.12,0.67-1.73,0.92c-0.6,0.25-1.23,0.45-1.87,0.57C210.59,457.67,209.93,457.74,209.28,457.74z"
	/>
<path d="M302.72,276.91c-0.65,0-1.31-0.07-1.95-0.2s-1.27-0.32-1.87-0.57c-0.61-0.25-1.19-0.56-1.73-0.92
	c-0.55-0.36-1.06-0.78-1.52-1.24s-0.88-0.97-1.24-1.52c-0.36-0.54-0.67-1.12-0.92-1.73c-0.25-0.6-0.45-1.23-0.57-1.87
	c-0.13-0.64-0.2-1.3-0.2-1.95c0-0.65,0.07-1.31,0.2-1.96c0.12-0.63,0.32-1.26,0.57-1.87c0.25-0.6,0.56-1.18,0.92-1.72
	c0.36-0.55,0.78-1.06,1.24-1.52s0.97-0.88,1.52-1.25c0.54-0.36,1.12-0.67,1.73-0.92c0.6-0.25,1.23-0.44,1.87-0.57
	c3.25-0.65,6.7,0.42,9.02,2.74c0.46,0.46,0.88,0.97,1.24,1.52c0.36,0.54,0.67,1.12,0.92,1.72c0.25,0.61,0.45,1.24,0.57,1.87
	c0.13,0.65,0.2,1.31,0.2,1.96s-0.07,1.31-0.2,1.95c-0.12,0.64-0.32,1.27-0.57,1.87c-0.25,0.61-0.56,1.19-0.92,1.73
	c-0.36,0.55-0.78,1.06-1.24,1.52C307.93,275.84,305.35,276.91,302.72,276.91z"/>
<path d="M502,310.199H347.466v-90.477c0-5.523-4.477-10-10-10H174.534c-5.523,0-10,4.477-10,10v40.239H10c-5.523,0-10,4.477-10,10
	v224.964c0,5.523,4.477,10,10,10h164.534h162.933H502c5.523,0,10-4.477,10-10V320.199C512,314.676,507.523,310.199,502,310.199z
	 M20,279.961h144.534v204.964H20V279.961z M184.534,276.907h83.387c5.523,0,10-4.477,10-10s-4.477-10-10-10h-83.387v-27.185h142.933
	v90.477v117.54H244.08c-5.523,0-10,4.477-10,10s4.477,10,10,10h83.387v27.185H184.534V276.907z M492,484.925H347.466V330.199H492
	V484.925z"/>
<g>
</g>
<g>
</g>
<g>
</g>
<g>
</g>
<g>
</g>
<g>
</g>
<g>
</g>
<g>
</g>
<g>
</g>
<g>
</g>
<g>
</g>
<g>
</g>
<g>
</g>
<g>
</g>
<g>
</g>
</svg>
