<?xml version="1.0" encoding="iso-8859-1"?>
<!-- Generator: Adobe Illustrator 19.0.0, SVG Export Plug-In . SVG Version: 6.00 Build 0)  -->
<svg version="1.1" id="Layer_1" xmlns="http://www.w3.org/2000/svg" xmlns:xlink="http://www.w3.org/1999/xlink" x="0px" y="0px"
	 viewBox="0 0 512 512" style="enable-background:new 0 0 512 512;" xml:space="preserve">
<g>
	<path style="fill:#9DA6BA;" d="M471.858,391.233v91.203c0,9.354-7.574,16.94-16.928,16.94H57.07
		c-9.354,0-16.928-7.587-16.928-16.94v-91.203c0-9.354,7.574-16.928,16.928-16.928H256h198.93
		C464.284,374.305,471.858,381.879,471.858,391.233z M427.626,436.841c0-12.548-10.174-22.722-22.722-22.722
		c-12.548,0-22.722,10.174-22.722,22.722s10.174,22.722,22.722,22.722C417.452,459.563,427.626,449.389,427.626,436.841z"/>
	<path style="fill:#9DA6BA;" d="M471.858,210.405v91.191c0,9.354-7.574,16.94-16.928,16.94H256H57.07
		c-9.354,0-16.928-7.587-16.928-16.94v-91.191c0-9.354,7.574-16.94,16.928-16.94H256h198.93
		C464.284,193.464,471.858,201.051,471.858,210.405z M427.626,256c0-12.548-10.174-22.722-22.722-22.722
		c-12.548,0-22.722,10.174-22.722,22.722c0,12.548,10.174,22.722,22.722,22.722C417.452,278.722,427.626,268.548,427.626,256z"/>
	<path style="fill:#9DA6BA;" d="M471.858,29.564v91.203c0,9.354-7.574,16.928-16.928,16.928H256H57.07
		c-9.354,0-16.928-7.574-16.928-16.928V29.564c0-9.354,7.574-16.94,16.928-16.94h397.86
		C464.284,12.623,471.858,20.21,471.858,29.564z M427.626,75.159c0-12.548-10.174-22.722-22.722-22.722
		c-12.548,0-22.722,10.174-22.722,22.722s10.174,22.722,22.722,22.722C417.452,97.881,427.626,87.707,427.626,75.159z"/>
</g>
<g>
	<circle style="fill:#43D177;" cx="404.904" cy="75.159" r="22.722"/>
	<circle style="fill:#43D177;" cx="404.904" cy="256" r="22.722"/>
	<circle style="fill:#43D177;" cx="404.904" cy="436.841" r="22.722"/>
</g>
<path d="M404.904,110.504c19.489,0,35.345-15.856,35.345-35.345s-15.856-35.345-35.345-35.345
	c-19.489,0-35.345,15.856-35.345,35.345S385.414,110.504,404.904,110.504z M404.904,65.06c5.568,0,10.099,4.53,10.099,10.099
	c0,5.568-4.53,10.099-10.099,10.099s-10.099-4.53-10.099-10.099C394.806,69.591,399.336,65.06,404.904,65.06z"/>
<path d="M320.745,87.782h17.673c6.971,0,12.623-5.653,12.623-12.623c0-6.971-5.653-12.623-12.623-12.623h-17.673
	c-6.971,0-12.623,5.653-12.623,12.623S313.773,87.782,320.745,87.782z"/>
<path d="M279.934,87.782c6.971,0,12.623-5.653,12.623-12.623c0-6.971-5.653-12.623-12.623-12.623h-17.673
	c-6.971,0-12.623,5.653-12.623,12.623s5.653,12.623,12.623,12.623H279.934z"/>
<path d="M221.437,62.536H84.374c-6.971,0-12.623,5.653-12.623,12.623s5.653,12.623,12.623,12.623h137.064
	c6.971,0,12.623-5.653,12.623-12.623C234.061,68.188,228.408,62.536,221.437,62.536z"/>
<path d="M404.904,291.345c19.489,0,35.345-15.856,35.345-35.345s-15.856-35.345-35.345-35.345
	c-19.489,0-35.345,15.856-35.345,35.345S385.414,291.345,404.904,291.345z M404.904,245.901c5.568,0,10.099,4.531,10.099,10.099
	s-4.53,10.099-10.099,10.099s-10.099-4.531-10.099-10.099S399.336,245.901,404.904,245.901z"/>
<path d="M320.745,268.623h17.673c6.971,0,12.623-5.653,12.623-12.623c0-6.971-5.653-12.623-12.623-12.623h-17.673
	c-6.971,0-12.623,5.653-12.623,12.623C308.121,262.971,313.773,268.623,320.745,268.623z"/>
<path d="M279.934,268.623c6.971,0,12.623-5.653,12.623-12.623c0-6.971-5.653-12.623-12.623-12.623h-17.673
	c-6.971,0-12.623,5.653-12.623,12.623c0,6.971,5.653,12.623,12.623,12.623H279.934z"/>
<path d="M221.437,243.377H84.374c-6.971,0-12.623,5.653-12.623,12.623c0,6.971,5.653,12.623,12.623,12.623h137.064
	c6.971,0,12.623-5.653,12.623-12.623C234.061,249.029,228.408,243.377,221.437,243.377z"/>
<path d="M57.07,361.682c-16.294,0-29.551,13.257-29.551,29.551v91.203C27.519,498.738,40.776,512,57.07,512h397.86
	c16.294,0,29.551-13.262,29.551-29.564v-91.203c0-16.294-13.257-29.551-29.551-29.551H268.623v-30.523H454.93
	c16.294,0,29.551-13.262,29.551-29.564v-91.191c0-16.302-13.257-29.564-29.551-29.564H268.623v-30.523H454.93
	c16.294,0,29.551-13.257,29.551-29.551V29.564C484.481,13.262,471.224,0,454.93,0H57.07C40.776,0,27.519,13.262,27.519,29.564
	v91.203c0,16.294,13.257,29.551,29.551,29.551h186.307v30.523H57.07c-16.294,0-29.551,13.262-29.551,29.564v91.191
	c0,16.302,13.257,29.564,29.551,29.564h186.307v30.523L57.07,361.682L57.07,361.682z M52.765,120.767V29.564
	c0-2.381,1.931-4.317,4.305-4.317h397.86c2.373,0,4.305,1.936,4.305,4.317v91.203c0,2.374-1.931,4.305-4.305,4.305H57.07
	C54.697,125.071,52.765,123.141,52.765,120.767z M52.765,301.595v-91.191c0-2.381,1.931-4.317,4.305-4.317h397.86
	c2.373,0,4.305,1.936,4.305,4.317v91.191c0,2.381-1.931,4.317-4.305,4.317H57.07C54.697,305.912,52.765,303.976,52.765,301.595z
	 M459.235,391.233v91.203c0,2.381-1.931,4.317-4.305,4.317H57.07c-2.373,0-4.305-1.936-4.305-4.317v-91.203
	c0-2.374,1.931-4.305,4.305-4.305h397.86C457.303,386.929,459.235,388.859,459.235,391.233z"/>
<path d="M404.904,472.186c19.489,0,35.345-15.856,35.345-35.345s-15.856-35.345-35.345-35.345
	c-19.489,0-35.345,15.856-35.345,35.345S385.414,472.186,404.904,472.186z M404.904,426.742c5.568,0,10.099,4.53,10.099,10.099
	s-4.53,10.099-10.099,10.099s-10.099-4.53-10.099-10.099S399.336,426.742,404.904,426.742z"/>
<path d="M320.745,449.464h17.673c6.971,0,12.623-5.653,12.623-12.623s-5.653-12.623-12.623-12.623h-17.673
	c-6.971,0-12.623,5.653-12.623,12.623S313.773,449.464,320.745,449.464z"/>
<path d="M249.638,436.841c0,6.971,5.653,12.623,12.623,12.623h17.673c6.971,0,12.623-5.653,12.623-12.623
	s-5.653-12.623-12.623-12.623h-17.673C255.289,424.218,249.638,429.869,249.638,436.841z"/>
<path d="M221.437,424.218H84.374c-6.971,0-12.623,5.653-12.623,12.623s5.653,12.623,12.623,12.623h137.064
	c6.971,0,12.623-5.653,12.623-12.623S228.408,424.218,221.437,424.218z"/>
<g>
</g>
<g>
</g>
<g>
</g>
<g>
</g>
<g>
</g>
<g>
</g>
<g>
</g>
<g>
</g>
<g>
</g>
<g>
</g>
<g>
</g>
<g>
</g>
<g>
</g>
<g>
</g>
<g>
</g>
</svg>
